<svg xmlns="http://www.w3.org/2000/svg" width="128" height="128" viewBox="0 0 128 128"><path d="M111.477 78.168V49.832h5.359v23.586H128v4.75zm-17.78.487q-2.802 0-5.075-.933q-2.274-.934-3.898-2.802q-1.583-1.867-2.476-4.587T81.355 64q0-3.572.893-6.292q.893-2.761 2.476-4.628q1.624-1.868 3.898-2.802t5.074-.933q2.801 0 5.075.933q2.273.934 3.897 2.802t2.476 4.628q.893 2.72.893 6.292q0 3.613-.893 6.333q-.852 2.72-2.476 4.587q-1.624 1.868-3.897 2.802q-2.274.933-5.075.933zm0-4.75q3.044 0 4.83-2.03q1.827-2.03 1.827-5.683v-4.384q0-3.654-1.827-5.684q-1.786-2.03-4.83-2.03q-3.046 0-4.872 2.03q-1.787 2.03-1.787 5.684v4.384q0 3.654 1.787 5.684q1.826 2.03 4.871 2.03zm-38.04-24.073H68.77q1.746 0 3.126.528q1.42.527 2.395 1.461q.974.934 1.462 2.314q.527 1.34.527 2.964t-.446 2.76q-.406 1.096-1.137 1.827q-.69.73-1.624 1.096q-.893.365-1.867.406v.244q.934 0 1.989.365q1.096.365 1.99 1.177q.933.772 1.542 2.03q.609 1.218.609 3.045q0 1.705-.569 3.207q-.527 1.461-1.502 2.558q-.974 1.096-2.314 1.745q-1.34.61-2.922.61H55.657zm5.36 23.79h7.469q1.543 0 2.395-.772q.853-.812.853-2.314v-1.38q0-1.502-.853-2.314q-.852-.812-2.395-.812h-7.47zm0-11.977h6.616q1.462 0 2.274-.77q.812-.813.812-2.234v-1.258q0-1.421-.812-2.192q-.812-.812-2.274-.812h-6.617zm-23.14 17.01q-2.802 0-5.075-.933q-2.274-.934-3.897-2.802q-1.584-1.867-2.477-4.587T25.535 64q0-3.572.893-6.292q.893-2.761 2.477-4.628q1.623-1.868 3.897-2.802t5.074-.933t5.075.933q2.273.934 3.897 2.802t2.476 4.628q.894 2.72.894 6.292q0 3.613-.894 6.333q-.852 2.72-2.476 4.587q-1.624 1.868-3.897 2.802q-2.274.933-5.075.933zm0-4.75q3.044 0 4.83-2.03q1.827-2.03 1.827-5.683v-4.384q0-3.654-1.827-5.684q-1.786-2.03-4.83-2.03t-4.872 2.03q-1.787 2.03-1.787 5.684v4.384q0 3.654 1.787 5.684q1.827 2.03 4.871 2.03zm-25.658 4.75q-2.8 0-5.074-.893q-2.233-.934-3.857-2.76q-1.583-1.827-2.435-4.507Q0 67.775 0 64.203t.853-6.333q.852-2.801 2.435-4.669q1.624-1.908 3.857-2.882q2.273-.974 5.074-.974q3.817 0 6.333 1.624q2.517 1.623 4.02 4.912l-4.588 2.436q-.609-1.908-1.99-3.045q-1.38-1.177-3.775-1.177q-3.004 0-4.79 2.03q-1.746 2.03-1.746 5.683v4.465q0 3.695 1.746 5.684q1.786 1.948 4.79 1.948q2.396 0 3.898-1.299q1.542-1.299 2.232-3.207l4.344 2.558q-1.542 3.166-4.1 4.953q-2.557 1.745-6.374 1.745"/></svg>