<svg xmlns="http://www.w3.org/2000/svg" width="128" height="128" viewBox="0 0 128 128"><defs><path id="IconifyId1946e3d75523b085024" fill="#619cbc" d="m98.204 91.48l-34.17-13.244l-34.168 13.242l13.491-21.11l-34.61-12.926l42.506.198L64.03 36.41l12.78 21.23l42.509-.194L84.71 70.37l13.493 21.11"/><path id="IconifyId1946e3d75523b085025" d="M37.804 44.66c3.413 0 1.424 8.528.21 11.1c-1.04 2.201-3.38 5.377-6.153 5.377c-3.327 0-3.228-3.727-1.904-6.532c.717-1.52 1.82-3.222 3.338-4.474c-.39 1.307.925 2.2.393 3.325c-.363.769-1.114 1.609-1.504 2.436c-.631 1.337-.39 3.71 1.135 3.71c1.365 0 2.578-1.692 3.075-2.745c1.019-2.158 3.566-11.366.719-11.366c-3.28 0-8.93 7.99-10.113 10.497c-2.112 4.474-.58 9.984 4.231 9.984c3.252 0 5.926-3.126 7.218-5.862a15 15 0 0 0 1.353-4.781l.632-.116c.139 4.21 4.592 11.18 2.697 15.196c-2.427 5.14-9.681 5.094-13.824 6.918c-.87-2.037-2.05-3.93-3.711-5.376c3.695-1.243 12.775-3.33 14.75-7.512c.83-1.758.264-4.671-.694-5.659a11 11 0 0 1-.689 1.89c-1.69 3.58-5.31 6.357-9.041 6.357c-5.196 0-7.398-3.733-4.953-8.913c1.467-3.109 8.96-13.455 12.835-13.455"/><path id="IconifyId1946e3d75523b085026" fill="none" stroke="#000" d="M37.804 44.66c3.413 0 1.424 8.528.21 11.1c-1.04 2.201-3.38 5.377-6.153 5.377c-3.327 0-3.228-3.727-1.904-6.532c.717-1.52 1.82-3.222 3.338-4.474c-.39 1.307.925 2.2.393 3.325c-.363.769-1.114 1.609-1.504 2.436c-.631 1.337-.39 3.71 1.135 3.71c1.365 0 2.578-1.692 3.075-2.745c1.019-2.158 3.566-11.366.719-11.366c-3.28 0-8.93 7.99-10.113 10.497c-2.112 4.474-.58 9.984 4.231 9.984c3.252 0 5.926-3.126 7.218-5.862a15 15 0 0 0 1.353-4.781l.632-.116c.139 4.21 4.592 11.18 2.697 15.196c-2.427 5.14-9.681 5.094-13.824 6.918c-.87-2.037-2.05-3.93-3.711-5.376c3.695-1.243 12.775-3.33 14.75-7.512c.83-1.758.264-4.671-.694-5.659a11 11 0 0 1-.689 1.89c-1.69 3.58-5.31 6.357-9.041 6.357c-5.196 0-7.398-3.733-4.953-8.913c1.467-3.109 8.96-13.455 12.835-13.455z"/><path id="IconifyId1946e3d75523b085027" d="M46.681 57.002c.206.508.803 3.38 1.256 3.38c.979 0 2.748-2.663 3.222-3.355c.87.57.388 1.767 2 1.767c.73 0 1.098-1.573 1.858-1.599c.026.636.067 1.211-.28 1.946c-.534 1.132-1.886 2.666-3.215 2.666c-.953 0-2.279-1.146-2.54-1.146c-.282 0-.802.132-.967.483c-.693 1.467 1.158 6.363 3.014 6.363c.992 0 2.175-.728 3.213-1.176c-.27 1.764-.308 3.251.05 4.77a5.7 5.7 0 0 1-2.942.85c-4.56 0-2.045-10.605-6.25-12.865l1.58-2.084"/><path id="IconifyId1946e3d75523b085028" fill="none" stroke="#000" d="M46.681 57.002c.206.508.803 3.38 1.256 3.38c.979 0 2.748-2.663 3.222-3.355c.87.57.388 1.767 2 1.767c.73 0 1.098-1.573 1.858-1.599c.026.636.067 1.211-.28 1.946c-.534 1.132-1.886 2.666-3.215 2.666c-.953 0-2.279-1.146-2.54-1.146c-.282 0-.802.132-.967.483c-.693 1.467 1.158 6.363 3.014 6.363c.992 0 2.175-.728 3.213-1.176c-.27 1.764-.308 3.251.05 4.77a5.7 5.7 0 0 1-2.942.85c-4.56 0-2.045-10.605-6.25-12.865z"/><path id="IconifyId1946e3d75523b085029" d="M64.209 56.154c3.447 0 4.808 6.2 3.261 9.476c-1.2 2.542-3.327 4.384-6.052 4.384c-4.812 0-4.21-6.56-2.332-10.538c.518-1.096 2.287-3.484 3.67-3.484c.51 0 .93.162 1.453.162m-.107.579c-.542 0-1.02.268-1.27.802c-.53 1.118 2.105 2.25 1.727 3.051c-.238.504-1.144.976-1.601.976c-2.284 0-2.265-2.972-.903-4.908c-.847.539-1.402 1.363-1.762 2.127c-1.338 2.835-.276 6.734 2.778 6.734c1.688 0 3.631-1.516 4.387-3.117c.93-1.968-1.448-5.665-3.356-5.665"/><path id="IconifyId1946e3d75523b085030" fill="none" stroke="#000" d="M64.209 56.154c3.447 0 4.808 6.2 3.261 9.476c-1.2 2.542-3.327 4.384-6.052 4.384c-4.812 0-4.21-6.56-2.332-10.538c.518-1.096 2.287-3.484 3.67-3.484c.51 0 .93.162 1.453.162z"/><path id="IconifyId1946e3d75523b085031" fill="none" stroke="#000" d="M64.101 56.733c-.542 0-1.02.268-1.271.802c-.528 1.119 2.106 2.25 1.728 3.051c-.238.504-1.144.976-1.601.976c-2.284 0-2.265-2.972-.903-4.908c-.847.54-1.402 1.363-1.762 2.127c-1.339 2.835-.277 6.735 2.778 6.735c1.687 0 3.631-1.517 4.387-3.117c.93-1.968-1.448-5.666-3.356-5.666z"/><path id="IconifyId1946e3d75523b085032" d="M79.875 66.36c-.901 1.908-2.58 2.955-4.47 2.955c-5.997 0-7.187-5.469-4.587-10.975c.613-1.3 1.62-2.737 3.159-2.737c4.818 0 8.174 5.933 5.897 10.757zM75.09 56.293c-.443 0-.83.16-1.043.61c-.466.989 2.072 1.87 2.075 2.892c-.265.314-1.007.665-1.33.665c-1.828 0-3.208-2.478-1.647-4.32c-.634.403-1.01 1.005-1.277 1.57c-1.582 3.352.673 6.74 3.96 6.74c1.368 0 3.13-.76 3.841-2.266c1.006-2.13-2.576-5.89-4.58-5.89"/><path id="IconifyId1946e3d75523b085033" fill="none" stroke="#000" d="M79.875 66.36c-.901 1.908-2.58 2.955-4.47 2.955c-5.997 0-7.187-5.469-4.587-10.975c.613-1.3 1.62-2.737 3.159-2.737c4.818 0 8.174 5.933 5.897 10.757z"/><path id="IconifyId1946e3d75523b085034" fill="none" stroke="#000" d="M75.089 56.294c-.442 0-.83.16-1.043.61c-.466.988 2.072 1.87 2.076 2.892c-.265.313-1.008.665-1.331.665c-1.828 0-3.208-2.478-1.647-4.32c-.633.402-1.01 1.004-1.277 1.57c-1.582 3.352.674 6.74 3.96 6.74c1.368 0 3.131-.76 3.842-2.266c1.005-2.13-2.576-5.89-4.58-5.89z"/><path id="IconifyId1946e3d75523b085035" d="M86.077 56.262c5.168 0 7.795 9.484 5.485 14.376c-.441.935-1.264 1.87-2.35 1.87c-5.904 0-4.397-11.737-7.72-15.072c.303-.323.594-.66.861-1c2.246 2.635 1.13 9.572 5.927 9.572c1.105 0 1.941-.967 2.387-1.912c1.191-2.523-1.013-6.906-3.426-6.906c-.024 0-.37.014-.363.154c.09 1.611 1.356.607.08 3.348c-1.303-.26-2.684-2.353-1.971-3.863c.21-.444.734-.567 1.09-.567"/><path id="IconifyId1946e3d75523b085036" fill="none" stroke="#000" d="M86.077 56.262c5.168 0 7.795 9.484 5.485 14.376c-.441.935-1.264 1.87-2.35 1.87c-5.904 0-4.397-11.737-7.72-15.072c.303-.323.594-.66.861-1c2.246 2.635 1.13 9.572 5.927 9.572c1.105 0 1.941-.967 2.387-1.912c1.191-2.523-1.013-6.906-3.426-6.906c-.024 0-.37.014-.363.154c.09 1.611 1.356.607.08 3.348c-1.303-.26-2.684-2.353-1.971-3.863c.21-.444.734-.567 1.09-.567z"/><path id="IconifyId1946e3d75523b085037" d="M98.927 56.154c.487.046 1.218.002 1.636.13c.078.023.019.121.032.199c.127.716.327 1.396.5 2.089c.673 2.698 1.078 5.468 1.85 8.142c.841 2.912 1.718 6.194.7 9.848q-.148.537-.405 1.085c-1.154 2.445-11.091 5.262-13.686 5.262c-.315 0-.655-.09-.805-.295c1.094-.696 1.78-1.41 2.27-2.446c.585-1.242.577-2.406.5-3.477c.207.12 7.842-.068 8.118-.068c1.123 0 2.086-1.085 2.536-2.04c.827-1.751.686-3.539.543-5.031a23 23 0 0 0-.312-2.2l-.21-1.036l-.027-.113l-.026-.114c.125 0 .013.22.018.331c.077 1.806.044 4.328-.926 6.384c-.451.955-1.189 1.94-2.32 1.94c-4.963 0-2.467-14.074-6.444-17.42c.22-.363.417-.738.582-1.105c2.353 2.842 2.477 10.677 5.94 10.677c.84 0 1.71-.788 2.067-1.545c1.539-3.26-1.017-7.057-2.13-9.197"/><path id="IconifyId1946e3d75523b085038" fill="none" stroke="#000" d="M98.927 56.154c.487.046 1.218.002 1.636.13c.078.023.019.121.032.199c.127.716.327 1.396.5 2.089c.673 2.698 1.078 5.468 1.85 8.142c.841 2.912 1.718 6.194.7 9.848q-.148.537-.405 1.085c-1.154 2.445-11.091 5.262-13.686 5.262c-.315 0-.655-.09-.805-.295c1.094-.696 1.78-1.41 2.27-2.446c.585-1.242.577-2.406.5-3.477c.207.12 7.842-.068 8.118-.068c1.123 0 2.086-1.085 2.536-2.04c.827-1.751.686-3.539.543-5.031a23 23 0 0 0-.312-2.2l-.21-1.036l-.027-.113l-.026-.114c.125 0 .013.22.018.331c.077 1.806.044 4.328-.926 6.384c-.451.955-1.189 1.94-2.32 1.94c-4.963 0-2.467-14.074-6.444-17.42c.22-.363.417-.738.582-1.105c2.353 2.842 2.477 10.677 5.94 10.677c.84 0 1.71-.788 2.067-1.545c1.539-3.26-1.017-7.057-2.13-9.197z"/><path id="IconifyId1946e3d75523b085039" d="M98.927 56.154c.487.046 1.218.002 1.636.13c.078.023.019.121.032.199c.127.716.327 1.396.5 2.089c.673 2.698 1.078 5.468 1.85 8.142c.841 2.912 1.718 6.194.7 9.848q-.148.537-.405 1.085c-1.154 2.445-4.12 4.772-6.716 4.772c-.315 0-.655-.09-.806-.294c1.096-.696 1.78-1.41 2.27-2.446c.587-1.243.578-2.407.5-3.478c.208.12.873.422 1.15.422c1.122 0 2.085-1.085 2.536-2.04c.827-1.751.685-3.539.542-5.031a23 23 0 0 0-.312-2.2l-.21-1.036l-.027-.113l-.026-.114c.126 0 .013.22.018.331c.077 1.806.045 4.328-.926 6.384c-.45.955-1.188 1.94-2.32 1.94c-4.963 0-2.467-14.074-6.444-17.42c.22-.363.417-.738.582-1.105c2.354 2.842 2.477 10.677 5.94 10.677c.841 0 1.71-.788 2.067-1.545c1.54-3.26-1.017-7.057-2.13-9.197"/><path id="IconifyId1946e3d75523b085040" fill="none" stroke="#000" d="M98.927 56.154c.487.046 1.218.002 1.636.13c.078.023.019.121.032.199c.127.716.327 1.396.5 2.089c.673 2.698 1.078 5.468 1.85 8.142c.841 2.912 1.718 6.194.7 9.848q-.148.537-.405 1.085c-1.154 2.445-4.12 4.772-6.716 4.772c-.315 0-.655-.09-.806-.294c1.096-.696 1.78-1.41 2.27-2.446c.587-1.243.578-2.407.5-3.478c.208.12.873.422 1.15.422c1.122 0 2.085-1.085 2.536-2.04c.827-1.751.685-3.539.542-5.031a23 23 0 0 0-.312-2.2l-.21-1.036l-.027-.113l-.026-.114c.126 0 .013.22.018.331c.077 1.806.045 4.328-.926 6.384c-.45.955-1.188 1.94-2.32 1.94c-4.963 0-2.467-14.074-6.444-17.42c.22-.363.417-.738.582-1.105c2.354 2.842 2.477 10.677 5.94 10.677c.841 0 1.71-.788 2.067-1.545c1.54-3.26-1.017-7.057-2.13-9.197z"/><path id="IconifyId1946e3d75523b085041" d="M37.804 44.66c3.413 0 1.424 8.528.21 11.1c-1.04 2.201-3.38 5.377-6.153 5.377c-3.327 0-3.228-3.727-1.904-6.532c.717-1.52 1.82-3.222 3.338-4.474c-.39 1.307.925 2.2.393 3.325c-.363.769-1.114 1.609-1.504 2.436c-.631 1.337-.39 3.71 1.135 3.71c1.365 0 2.578-1.692 3.075-2.745c1.019-2.158 3.566-11.366.719-11.366c-3.28 0-8.93 7.99-10.113 10.497c-2.112 4.474-.58 9.984 4.231 9.984c3.252 0 5.926-3.126 7.218-5.862a15 15 0 0 0 1.353-4.781l.632-.116c.139 4.21 4.592 11.18 2.697 15.196c-2.427 5.14-9.681 5.094-13.824 6.918c-.87-2.037-2.05-3.93-3.711-5.376c3.695-1.243 12.775-3.33 14.75-7.512c.83-1.758.264-4.671-.694-5.659a11 11 0 0 1-.689 1.89c-1.69 3.58-5.31 6.357-9.041 6.357c-5.196 0-7.398-3.733-4.953-8.913c1.467-3.109 8.96-13.455 12.835-13.455m8.877 12.343c.206.508.803 3.38 1.256 3.38c.979 0 2.748-2.663 3.222-3.355c.87.57.388 1.767 2 1.767c.73 0 1.098-1.573 1.858-1.599c.026.636.067 1.211-.28 1.946c-.534 1.132-1.886 2.666-3.215 2.666c-.953 0-2.279-1.146-2.54-1.146c-.282 0-.802.132-.967.483c-.693 1.467 1.158 6.363 3.014 6.363c.992 0 2.175-.728 3.213-1.176c-.27 1.764-.308 3.251.05 4.77a5.7 5.7 0 0 1-2.942.85c-4.56 0-2.045-10.605-6.25-12.865z"/><path id="IconifyId1946e3d75523b085042" d="M64.209 56.154c3.447 0 4.808 6.2 3.261 9.476c-1.2 2.542-3.327 4.384-6.052 4.384c-4.812 0-4.21-6.56-2.332-10.538c.518-1.096 2.287-3.484 3.67-3.484c.51 0 .93.162 1.453.162m-.107.579c-.542 0-1.02.268-1.27.802c-.53 1.118 2.105 2.25 1.727 3.051c-.238.504-1.144.976-1.601.976c-2.284 0-2.265-2.972-.903-4.908c-.847.539-1.402 1.363-1.762 2.127c-1.338 2.835-.276 6.734 2.778 6.734c1.688 0 3.631-1.516 4.387-3.117c.93-1.968-1.448-5.665-3.356-5.665m15.773 9.627c-.901 1.908-2.58 2.955-4.47 2.955c-5.997 0-7.187-5.469-4.587-10.975c.613-1.3 1.62-2.737 3.159-2.737c4.818 0 8.174 5.933 5.897 10.757zM75.09 56.293c-.443 0-.83.16-1.043.61c-.466.989 2.072 1.87 2.075 2.892c-.265.314-1.007.665-1.33.665c-1.828 0-3.208-2.478-1.647-4.32c-.634.403-1.01 1.005-1.277 1.57c-1.582 3.352.673 6.74 3.96 6.74c1.368 0 3.13-.76 3.841-2.266c1.006-2.13-2.576-5.89-4.58-5.89"/><path id="IconifyId1946e3d75523b085043" d="M98.927 56.154c.487.046 1.218.002 1.636.13c.078.023.019.121.032.199c.127.716.327 1.396.5 2.089c.673 2.698 1.078 5.468 1.85 8.142c.841 2.912 1.718 6.194.7 9.848q-.148.537-.405 1.085c-3.87 7.432-12.151 5.43-14.745 5.43c-.315 0-.656-.09-.806-.295c1.094-.696 1.78-1.41 2.27-2.446c.586-1.243.577-2.406.5-3.478c.207.121.872.422 1.148.422c1.123 0 7.378 3.214 10.567-2.696c.827-1.752.685-3.54.542-5.032a23 23 0 0 0-.312-2.2l-.21-1.036l-.027-.113l-.026-.113c.126 0 .013.22.018.33c.077 1.807.045 4.328-.926 6.384c-.45.955-1.188 1.94-2.32 1.94c-4.963 0-2.467-14.074-6.444-17.42c.22-.363.417-.738.582-1.105c2.354 2.842 2.477 10.677 5.94 10.677c.841 0 1.71-.787 2.068-1.545c1.538-3.26-1.018-7.056-2.132-9.197"/></defs><path d="M103.555 95.851L64 80.52L24.446 95.847l15.618-24.436L0 56.447l49.208.23L63.999 32.1l14.794 24.578L128 56.453l-40.065 14.96z"/><use href="#IconifyId1946e3d75523b085024"/><use href="#IconifyId1946e3d75523b085025"/><use href="#IconifyId1946e3d75523b085026" stroke-linejoin="round" stroke-miterlimit="3.864" stroke-width="5.718"/><use href="#IconifyId1946e3d75523b085027"/><use href="#IconifyId1946e3d75523b085028" stroke-linejoin="round" stroke-miterlimit="3.864" stroke-width="5.718"/><use href="#IconifyId1946e3d75523b085029" fill-rule="evenodd"/><use href="#IconifyId1946e3d75523b085030" stroke-linejoin="round" stroke-miterlimit="3.864" stroke-width="5.718"/><use href="#IconifyId1946e3d75523b085031" stroke-linejoin="round" stroke-miterlimit="3.864" stroke-width="5.718"/><use href="#IconifyId1946e3d75523b085032" fill-rule="evenodd"/><use href="#IconifyId1946e3d75523b085033" stroke-linejoin="round" stroke-miterlimit="3.864" stroke-width="5.718"/><use href="#IconifyId1946e3d75523b085034" stroke-linejoin="round" stroke-miterlimit="3.864" stroke-width="5.718"/><use href="#IconifyId1946e3d75523b085035"/><use href="#IconifyId1946e3d75523b085036" stroke-linejoin="round" stroke-miterlimit="3.864" stroke-width="5.718"/><use href="#IconifyId1946e3d75523b085037" fill-rule="evenodd"/><use href="#IconifyId1946e3d75523b085038" stroke-linejoin="round" stroke-miterlimit="3.864" stroke-width="5.718"/><use href="#IconifyId1946e3d75523b085025"/><use href="#IconifyId1946e3d75523b085026" stroke-miterlimit="3.864" stroke-width=".477"/><use href="#IconifyId1946e3d75523b085027"/><use href="#IconifyId1946e3d75523b085028" stroke-miterlimit="3.864" stroke-width=".477"/><use href="#IconifyId1946e3d75523b085029" fill-rule="evenodd"/><use href="#IconifyId1946e3d75523b085030" stroke-miterlimit="3.864" stroke-width=".477"/><use href="#IconifyId1946e3d75523b085031" stroke-miterlimit="3.864" stroke-width=".477"/><use href="#IconifyId1946e3d75523b085032" fill-rule="evenodd"/><use href="#IconifyId1946e3d75523b085033" stroke-miterlimit="3.864" stroke-width=".477"/><use href="#IconifyId1946e3d75523b085034" stroke-miterlimit="3.864" stroke-width=".477"/><use href="#IconifyId1946e3d75523b085035"/><use href="#IconifyId1946e3d75523b085036" stroke-miterlimit="3.864" stroke-width=".477"/><use href="#IconifyId1946e3d75523b085039" fill-rule="evenodd"/><use href="#IconifyId1946e3d75523b085040" stroke-miterlimit="3.864" stroke-width=".477"/><use href="#IconifyId1946e3d75523b085025"/><use href="#IconifyId1946e3d75523b085026" stroke-linejoin="round" stroke-miterlimit="3.864" stroke-width="5.718"/><use href="#IconifyId1946e3d75523b085027"/><use href="#IconifyId1946e3d75523b085028" stroke-linejoin="round" stroke-miterlimit="3.864" stroke-width="5.718"/><use href="#IconifyId1946e3d75523b085029" fill-rule="evenodd"/><use href="#IconifyId1946e3d75523b085030" stroke-linejoin="round" stroke-miterlimit="3.864" stroke-width="5.718"/><use href="#IconifyId1946e3d75523b085031" stroke-linejoin="round" stroke-miterlimit="3.864" stroke-width="5.718"/><use href="#IconifyId1946e3d75523b085032" fill-rule="evenodd"/><use href="#IconifyId1946e3d75523b085033" stroke-linejoin="round" stroke-miterlimit="3.864" stroke-width="5.718"/><use href="#IconifyId1946e3d75523b085034" stroke-linejoin="round" stroke-miterlimit="3.864" stroke-width="5.718"/><use href="#IconifyId1946e3d75523b085035"/><use href="#IconifyId1946e3d75523b085036" stroke-linejoin="round" stroke-miterlimit="3.864" stroke-width="5.718"/><use href="#IconifyId1946e3d75523b085039" fill-rule="evenodd"/><use href="#IconifyId1946e3d75523b085040" stroke-linejoin="round" stroke-miterlimit="3.864" stroke-width="5.718"/><g fill="#fff"><use href="#IconifyId1946e3d75523b085041"/><use href="#IconifyId1946e3d75523b085042" fill-rule="evenodd"/><use href="#IconifyId1946e3d75523b085035"/><use href="#IconifyId1946e3d75523b085043" fill-rule="evenodd"/></g><path d="m103.493 95.913l-39.525-15.35l-39.525 15.346l15.606-24.464L.013 56.463l49.172.23l14.781-24.605L78.75 56.694l49.172-.225l-40.036 14.978l15.609 24.466"/><use href="#IconifyId1946e3d75523b085024"/><use href="#IconifyId1946e3d75523b085025"/><use href="#IconifyId1946e3d75523b085026" stroke-linejoin="round" stroke-miterlimit="3.864" stroke-width="5.718"/><use href="#IconifyId1946e3d75523b085027"/><use href="#IconifyId1946e3d75523b085028" stroke-linejoin="round" stroke-miterlimit="3.864" stroke-width="5.718"/><use href="#IconifyId1946e3d75523b085029" fill-rule="evenodd"/><use href="#IconifyId1946e3d75523b085030" stroke-linejoin="round" stroke-miterlimit="3.864" stroke-width="5.718"/><use href="#IconifyId1946e3d75523b085031" stroke-linejoin="round" stroke-miterlimit="3.864" stroke-width="5.718"/><use href="#IconifyId1946e3d75523b085032" fill-rule="evenodd"/><use href="#IconifyId1946e3d75523b085033" stroke-linejoin="round" stroke-miterlimit="3.864" stroke-width="5.718"/><use href="#IconifyId1946e3d75523b085034" stroke-linejoin="round" stroke-miterlimit="3.864" stroke-width="5.718"/><use href="#IconifyId1946e3d75523b085035"/><use href="#IconifyId1946e3d75523b085036" stroke-linejoin="round" stroke-miterlimit="3.864" stroke-width="5.718"/><use href="#IconifyId1946e3d75523b085037" fill-rule="evenodd"/><use href="#IconifyId1946e3d75523b085038" stroke-linejoin="round" stroke-miterlimit="3.864" stroke-width="5.718"/><use href="#IconifyId1946e3d75523b085025"/><use href="#IconifyId1946e3d75523b085026" stroke-miterlimit="3.864" stroke-width=".477"/><use href="#IconifyId1946e3d75523b085027"/><use href="#IconifyId1946e3d75523b085028" stroke-miterlimit="3.864" stroke-width=".477"/><use href="#IconifyId1946e3d75523b085029" fill-rule="evenodd"/><use href="#IconifyId1946e3d75523b085030" stroke-miterlimit="3.864" stroke-width=".477"/><use href="#IconifyId1946e3d75523b085031" stroke-miterlimit="3.864" stroke-width=".477"/><use href="#IconifyId1946e3d75523b085032" fill-rule="evenodd"/><use href="#IconifyId1946e3d75523b085033" stroke-miterlimit="3.864" stroke-width=".477"/><use href="#IconifyId1946e3d75523b085034" stroke-miterlimit="3.864" stroke-width=".477"/><use href="#IconifyId1946e3d75523b085035"/><use href="#IconifyId1946e3d75523b085036" stroke-miterlimit="3.864" stroke-width=".477"/><use href="#IconifyId1946e3d75523b085039" fill-rule="evenodd"/><use href="#IconifyId1946e3d75523b085040" stroke-miterlimit="3.864" stroke-width=".477"/><use href="#IconifyId1946e3d75523b085025"/><use href="#IconifyId1946e3d75523b085026" stroke-linejoin="round" stroke-miterlimit="3.864" stroke-width="5.718"/><use href="#IconifyId1946e3d75523b085027"/><use href="#IconifyId1946e3d75523b085028" stroke-linejoin="round" stroke-miterlimit="3.864" stroke-width="5.718"/><use href="#IconifyId1946e3d75523b085029" fill-rule="evenodd"/><use href="#IconifyId1946e3d75523b085030" stroke-linejoin="round" stroke-miterlimit="3.864" stroke-width="5.718"/><use href="#IconifyId1946e3d75523b085031" stroke-linejoin="round" stroke-miterlimit="3.864" stroke-width="5.718"/><use href="#IconifyId1946e3d75523b085032" fill-rule="evenodd"/><use href="#IconifyId1946e3d75523b085033" stroke-linejoin="round" stroke-miterlimit="3.864" stroke-width="5.718"/><use href="#IconifyId1946e3d75523b085034" stroke-linejoin="round" stroke-miterlimit="3.864" stroke-width="5.718"/><use href="#IconifyId1946e3d75523b085035"/><use href="#IconifyId1946e3d75523b085036" stroke-linejoin="round" stroke-miterlimit="3.864" stroke-width="5.718"/><use href="#IconifyId1946e3d75523b085039" fill-rule="evenodd"/><use href="#IconifyId1946e3d75523b085040" stroke-linejoin="round" stroke-miterlimit="3.864" stroke-width="5.718"/><g fill="#fff"><use href="#IconifyId1946e3d75523b085041"/><use href="#IconifyId1946e3d75523b085042" fill-rule="evenodd"/><use href="#IconifyId1946e3d75523b085035"/><use href="#IconifyId1946e3d75523b085043" fill-rule="evenodd"/></g></svg>