<svg xmlns="http://www.w3.org/2000/svg" width="128" height="128" viewBox="0 0 128 128"><path fill="navy" d="M112.956.708c-7.912 0-14.335 6.424-14.335 14.336s6.424 14.335 14.335 14.335s14.335-6.41 14.335-14.335c0-7.912-6.424-14.336-14.335-14.336M64 15.058c-27.02 0-48.956 21.935-48.956 48.955S36.979 112.97 64 112.97c27.02 0 48.956-21.935 48.956-48.956c0-27.02-21.936-48.956-48.956-48.956"/><path fill="#fff" d="M84.285 29.392c-7.91 0-14.335 6.424-14.335 14.335s6.424 14.336 14.335 14.336s14.336-6.424 14.336-14.336s-6.424-14.335-14.335-14.335zM30.773 56.36v32.119h19.961v-3.611H34.87V56.359Zm57.584 8.37c-3.354 0-6.126.975-7.668 2.692c-1.055 1.19-1.488 2.516-1.582 4.801h3.705c.311-2.826 1.988-4.098 5.423-4.098c3.3 0 5.153 1.231 5.153 3.435v.974c0 1.542-.92 2.205-3.827 2.556c-5.193.663-5.991.839-7.398 1.407c-2.69 1.095-4.057 3.164-4.057 6.166c0 4.193 2.908 6.83 7.574 6.83c2.907 0 5.247-1.014 7.843-3.395c.257 2.34 1.407 3.395 3.787 3.395c.757 0 1.325-.081 2.515-.392v-2.773a3 3 0 0 1-.798.095c-1.284 0-1.988-.663-1.988-1.812V71.032c0-4.098-3.002-6.302-8.682-6.302m-33.742.664V83.19c0 3.84 2.867 6.302 7.357 6.302c3.395 0 5.545-1.19 7.709-4.233v3.219h3.3V65.393h-3.652v13.09c0 4.72-2.475 7.804-6.302 7.804c-2.907 0-4.76-1.772-4.76-4.544v-16.35Zm38.773 11.67v4.139c0 1.244-.365 1.988-1.46 3.002c-1.502 1.366-3.3 2.07-5.464 2.07c-2.867 0-4.544-1.367-4.544-3.706c0-2.42 1.636-3.665 5.558-4.233c3.881-.528 4.68-.703 5.91-1.271z"/><path fill="gray" d="M61.733 0a64 64 0 0 0-5.57.436l.179 1.458a63 63 0 0 1 5.442-.426zm5.585.046l-.075 1.468a62 62 0 0 1 5.433.52L72.88.578a64 64 0 0 0-5.561-.532Zm-16.665 1.31a63 63 0 0 0-5.409 1.398l.43 1.405a62 62 0 0 1 5.284-1.367Zm27.72.237l-.33 1.431a63 63 0 0 1 5.262 1.455l.452-1.397a64 64 0 0 0-5.384-1.489M39.98 4.623a64 64 0 0 0-5.081 2.323l.668 1.308a62 62 0 0 1 4.964-2.27zm49.012.41l-.573 1.353a63 63 0 0 1 4.929 2.346l.688-1.298a64 64 0 0 0-5.044-2.4ZM30.04 9.706a64 64 0 0 0-4.6 3.17l.886 1.173a63 63 0 0 1 4.494-3.098zm-8.906 6.728a64 64 0 0 0-3.983 3.918l1.075 1.001a63 63 0 0 1 3.891-3.827zm-7.61 8.165a64 64 0 0 0-3.247 4.546l1.231.8a63 63 0 0 1 3.172-4.44zm-6.086 9.357a64 64 0 0 0-2.408 5.042l1.352.574a62 62 0 0 1 2.352-4.925zm113.623.973l-1.31.667a63 63 0 0 1 2.263 4.967l1.362-.55a64 64 0 0 0-2.315-5.083zM3.075 44.23a63 63 0 0 0-1.49 5.385l1.432.328a62 62 0 0 1 1.455-5.26Zm122.166 1.049l-1.404.429a63 63 0 0 1 1.366 5.285l1.437-.306a64 64 0 0 0-1.399-5.409zM.574 55.108a64 64 0 0 0-.528 5.561l1.467.075a63 63 0 0 1 .516-5.434Zm126.988 1.088l-1.458.179a63 63 0 0 1 .428 5.441l1.468-.05a64 64 0 0 0-.438-5.57M1.468 66.205L0 66.255a64 64 0 0 0 .435 5.57l1.458-.179a63 63 0 0 1-.425-5.441m125.018 1.071a63 63 0 0 1-.518 5.434l1.455.203a64 64 0 0 0 .53-5.561zM2.79 77.031l-1.437.304a63 63 0 0 0 1.398 5.41l1.405-.43A62 62 0 0 1 2.79 77.03Zm122.188 1.046a62 62 0 0 1-1.457 5.26l1.397.454a63 63 0 0 0 1.492-5.384zM5.981 87.459l-1.362.551a63 63 0 0 0 2.323 5.082l1.307-.669a62 62 0 0 1-2.268-4.964m115.627.99a62 62 0 0 1-2.354 4.925l1.296.69a64 64 0 0 0 2.41-5.04zM10.944 97.17l-1.245.78a64 64 0 0 0 3.17 4.6l1.172-.885a63 63 0 0 1-3.097-4.495m105.534.904a63 63 0 0 1-3.173 4.44l1.156.906a64 64 0 0 0 3.249-4.545zm-98.96 7.8l-1.092.983a64 64 0 0 0 3.917 3.983l1.002-1.074a63 63 0 0 1-3.827-3.892m92.24.79a63 63 0 0 1-3.893 3.826l.983 1.092a64 64 0 0 0 3.984-3.916zm-84.263 6.648l-.906 1.157a64 64 0 0 0 4.546 3.248l.8-1.232a63 63 0 0 1-4.44-3.173m76.16.654a63 63 0 0 1-4.495 3.096l.78 1.245a64 64 0 0 0 4.6-3.17zm-67.018 5.294l-.691 1.296a64 64 0 0 0 5.04 2.409l.575-1.352a62 62 0 0 1-4.924-2.353m57.775.496a62 62 0 0 1-4.964 2.268l.551 1.362a63 63 0 0 0 5.082-2.322zm-47.74 3.77l-.453 1.396a63 63 0 0 0 5.385 1.49l.329-1.43a62 62 0 0 1-5.26-1.456zm37.632.322a62 62 0 0 1-5.284 1.365l.304 1.437a63 63 0 0 0 5.41-1.398zm-27.003 2.122l-.203 1.455a64 64 0 0 0 5.561.529l.075-1.467a63 63 0 0 1-5.433-.517m16.335.139a63 63 0 0 1-5.442.424l.05 1.468a64 64 0 0 0 5.57-.434z"/></svg>