<svg xmlns="http://www.w3.org/2000/svg" width="128" height="128" viewBox="0 0 256 256"><g fill="none"><rect width="256" height="256" fill="#004065" rx="60"/><path fill="#fff" d="M88.763 227.957c-3.55-.217-6.58-1.096-9.007-2.614c-.826-.517-1.007-.812-1.007-1.64c0-.436.046-.597.285-1.008c.324-.555 1.114-1.235 2.04-1.754c.904-.507 3.468-1.542 4.334-1.751c1.466-.352 2.62-.905 3.72-1.781c1.056-.842 1.976-2.155 2.354-3.359c.096-.306.47-1.088.83-1.739c4.672-8.431 6.603-18.114 5.446-27.301a71 71 0 0 1-.26-2.738c-.346-4.534-.99-8.208-2.182-12.43c-.184-.649-.315-1.339-.351-1.849c-.266-3.705-1.021-8.235-2.065-12.393c-.522-2.078-.558-2.622-.574-8.657c-.016-6.274-.09-7.671-.526-9.766c-.2-.961-.572-2.293-.64-2.293c-.033 0-.336.169-.672.377c-2.5 1.544-5.868 2.784-9.32 3.43a15 15 0 0 0-1.543.375c-.808.265-2.018.33-2.847.154c-1.362-.289-2.53-1.062-3.198-2.114c-.548-.863-1.11-1.077-1.937-.739c-.204.084-.858.533-1.452 1c-1.14.895-1.595 1.142-2.103 1.142c-.391 0-.706-.204-1.084-.703c-.65-.859-4.722-3.897-7.487-5.587a21 21 0 0 1-1.522-1.014c-1.468-1.139-3.483-2.063-5.487-2.514l-.92-.207l-.22-.37c-.216-.366-.218-.389-.195-2.03c.03-2.126-.014-2.28-.845-2.963c-.323-.265-.673-.601-.778-.747c-.341-.471-.906-.553-1.993-.29c-1.78.43-2.117.112-3.16-2.976c-.257-.762-.58-1.614-.72-1.892c-.523-1.054-1.206-1.696-2.296-2.161c-1.129-.481-2.607-2.157-3.362-3.811c-.828-1.813-1.168-3.759-1.369-7.842c-.108-2.212-.228-3.682-.396-4.883c-.616-4.407-.56-10.664.14-15.796l.177-1.295l.774-1.48a116 116 0 0 0 2.883-5.897c.926-2.036 2.204-5.05 2.204-5.2c0-.138-.933-.692-1.745-1.035c-1.473-.623-3.072-.952-6.973-1.435c-1.301-.161-2.836-.382-3.41-.49c-3.315-.628-5.352-1.749-6.737-3.706c-.242-.343-.353-.616-.462-1.147c-.419-2.026.411-4.093 2.604-6.485c.977-1.065 4.91-4.392 5.727-4.843c1.486-.823 2.922-1.123 6.483-1.354c2.345-.153 3.747-.341 4.93-.662c1.025-.278 1.95-.434 3.307-.56c2.716-.252 3.953-.583 4.862-1.3c.47-.372.9-1.001 1.057-1.548c.257-.898 1.137-1.887 2.229-2.504c.24-.136 1.148-.556 2.015-.933c1.81-.786 2.434-1.12 3.11-1.668c.266-.214.561-.423.658-.464c.787-.332 1.959-.415 2.917-.205c.766.167 1.514.467 3.375 1.351c1.562.742 3.043 1.277 3.544 1.278c.395.002 2.92 1.405 4.777 2.654c2.044 1.376 5.73 4.66 6.329 5.636c.19.31.43 1.284.65 2.636c.225 1.376.436 2.09.792 2.686c.255.426.516.674 1.64 1.556c1.066.837 2.226 2.803 2.728 4.625c.534 1.935.678 4.005.557 8.027c-.061 2.045-.059 3.53.008 4.945c.074 1.567.071 2.21-.014 2.861a12.1 12.1 0 0 1-1.368 4.254c-.23.433-.413.912-.474 1.249c-.155.85-.465 1.535-1.542 3.412c-1.47 2.562-1.623 3.057-1.482 4.796c.044.543.053 1.292.02 1.665c-.153 1.7-.184 3.07-.078 3.426c.232.777.793 1.11 1.759 1.04c.313-.022.634-.061.714-.087c.37-.122.886-1.525 1.343-3.663c.34-1.582.653-2.704.886-3.168c.076-.15.508-1.211.962-2.359c1.434-3.628 2.762-6.386 4.377-9.085c2.424-4.054 4.83-6.915 8.026-9.546c1.887-1.553 3.573-2.638 5.684-3.656a17 17 0 0 0 2.232-1.321c1.34-.935 4.093-3.192 5.299-4.344c3.969-3.795 7.088-8.18 9.159-12.879c.638-1.446.844-1.755 1.824-2.741c.903-.909 1.892-1.75 4.108-3.494c2.834-2.23 3.902-3.244 4.979-4.722l.572-.784l1.794-.352c3.379-.661 7.325-1.641 8.453-2.099a93 93 0 0 0 2.753-1.255c2.351-1.106 3.818-1.668 5.089-1.949c.693-.153 1.155-.195 2.76-.25c3.068-.103 5.168-.29 8-.71c1.581-.234 1.298-.27 4.266.549c1.972.544 4.814 1.463 6.232 2.016c1.138.444 2.816 1.461 4.602 2.79c4.639 3.453 8.096 8.447 9.41 13.598c.331 1.3 1.476 3.799 2.635 5.754c1.725 2.91 3.593 5.341 8.455 11.004c2.771 3.228 4.026 4.75 5.155 6.252c2.265 3.011 3.874 5.711 4.917 8.25c.209.508.729 1.503 1.155 2.21c3.9 6.473 8.905 12.466 14.834 17.763a10.8 10.8 0 0 1 2.128 2.528c1.187 1.895 1.9 4.019 2.684 7.99c.459 2.322.715 3.449 1.063 4.666c.309 1.085.311 1.088.87 1.688c1.458 1.562 1.774 3.199.78 4.039c-.343.29-.994.548-1.383.548c-.162 0-.169.039-.122.648c.027.356.21 1.276.407 2.044s.401 1.701.455 2.072c.177 1.221-.049 2.317-.651 3.155c-.162.225-.443.824-.626 1.332c-1.517 4.22-3.651 8.664-6.412 13.352l-1.456 2.476c-.603 1.034-1.918 1.852-2.975 1.852c-.44 0-.54-.029-.825-.24c-.461-.342-.621-.711-.778-1.799a84 84 0 0 0-.394-2.363c-.381-2.098-.523-3.142-.582-4.291c-.115-2.229.389-4.082 1.494-5.502c.485-.622.583-.866.879-2.193c.41-1.835.578-4.035.473-6.197c-.099-2.049-.531-4.292-1.181-6.121c-.32-.904-.327-.95-.303-1.961c.064-2.682-.68-5.137-2.238-7.38c-.219-.316-.433-.592-.475-.614c-.14-.073-.862.567-1.078.955c-.281.505-.457 1.248-.624 2.637c-.076.63-.215 1.396-.307 1.701c-.203.665-.444 1.953-.741 3.959c-1.538 10.377-1.082 20.444 1.4 30.852c.262 1.099.516 2.298.565 2.664c.127.951.11 2.941-.04 4.668c-.277 3.19-.32 4.231-.221 5.387c.148 1.732.231 2.004.812 2.646c1.288 1.425 1.77 2.799 1.761 5.019c-.006 1.496-.131 2.281-.857 5.438c-.262 1.139-.557 2.587-.655 3.218a164 164 0 0 1-.437 2.627c-1.401 8.006-.673 16.235 2.117 23.934c.289.797.428 1.349.538 2.146c.29 2.087.842 4.453 1.537 6.592l.346 1.066l-.269.407c-1.223 1.844-3.249 3.169-5.744 3.754c-.782.184-.987.201-2.346.198c-1.619-.004-2.096-.08-3.286-.521c-.562-.208-.588-.21-1.928-.18c-3.041.07-3.864.046-4.304-.123a2.53 2.53 0 0 1-1.268-1.086c-.381-.69-.245-2.05.334-3.337c.147-.326.694-1.342 1.215-2.26c1.322-2.322 1.745-3.48 1.745-4.769c0-.218.116-.775.257-1.236c.914-2.995 1.759-6.91 2.192-10.158c.928-6.965.752-13.524-.557-20.801c-.423-2.347-.528-3.197-.885-7.129c-.467-5.148-.802-7.356-1.463-9.645c-.26-.901-.304-.987-.841-1.627c-3.841-4.58-6.399-9.142-8.241-14.697c-.236-.713-.753-2.011-1.148-2.886c-1.729-3.826-3.542-8.727-4.741-12.818c-.105-.356-.215-.647-.245-.647s-.12.092-.199.203l-.888 1.246c-4.479 6.27-7.198 13.3-8.084 20.895c-.19 1.63-.264 5.674-.133 7.25c.057.672.139 1.904.183 2.738c.058 1.075.182 2.099.427 3.514c.607 3.508.658 4.645.269 6.03c-.227.808-.84 1.854-1.395 2.379c-.24.228-1.396 1.625-2.57 3.105s-2.903 3.657-3.842 4.837c-4.557 5.729-6.841 9.465-8.275 13.536c-.603 1.711.109 2.794 2.729 4.151c2.379 1.233 2.914 1.673 3.681 3.03a23.6 23.6 0 0 1 2.798 8.108c.156 1.027.276 3.923.184 4.439c-.059.332-.064.336-.692.567c-.348.128-1.145.431-1.771.673c-2.794 1.081-4.38 1.266-5.796.677c-.769-.32-1.24-.803-2.447-2.509c-1.5-2.122-4.645-6.103-4.944-6.259c-.228-.118-.641 1.2-.964 3.071c-.395 2.295-.75 3.147-1.611 3.872c-.583.49-1.05.697-2.506 1.11c-3.343.946-6.577 1.383-10.241 1.384c-2.417 0-3.778-.103-6.086-.462c-1.025-.159-1.041-.165-1.334-.468c-1.187-1.223-.767-2.857 1.125-4.375c1.147-.92 1.777-1.242 4.02-2.056c2.385-.866 4.545-2.52 5.947-4.554c.396-.575 1.134-2.021 1.136-2.225c0-.064.182-.314.404-.555c.518-.563.792-1.023.954-1.602c.356-1.275-.06-2.528-1.165-3.511c-.275-.245-.94-.875-1.478-1.4c-1.221-1.193-4.18-3.658-6.031-5.026a419 419 0 0 0-4.468-3.213c-4.715-3.348-6.493-4.698-8.588-6.522c-1.173-1.021-1.608-1.532-2.228-2.618c-1.9-3.328-2.065-7.647-.523-13.651c.226-.88.333-1.127.897-2.072a13 13 0 0 0 1.515-3.655c.341-1.357.389-3.371.121-5.013c-.305-1.868-.21-2.627.668-5.335c.539-1.659.779-2.581.869-3.322l.059-.494l-.425-.058c-.658-.09-4.177-.065-5.157.037a35 35 0 0 0-4.612.782l-.486.119l-.058 2.199c-.102 3.88-.508 8.355-1.065 11.727c-.113.682-.14.742-.485 1.073c-.865.829-2.029 2.534-2.563 3.753c-.523 1.197-.794 2.227-.939 3.582c-.094.871-.117.944-.443 1.401c-.414.579-.63 1.05-.841 1.831c-.134.499-.162 1.031-.191 3.618c-.046 4.222-.046 4.137.028 6.363c.053 1.599.038 2.242-.074 3.219a24.4 24.4 0 0 1-2.522 8.385c-.752 1.486-1.411 3.64-1.949 6.375c-.506 2.569-.713 4.236-1.236 9.951c-.338 3.697-.484 5.043-.748 6.881c-.414 2.88-1.178 6.15-1.561 6.681c-.524.728-.647 1.646-.501 3.751c.172 2.489.005 3.258-.881 4.067c-.57.52-1.156.787-2.574 1.173c-3.296.897-6.954 1.307-10.006 1.121m67.46-43.035c.317-.127.774-.643.872-.985c.029-.102.297-.501.595-.888c2.527-3.273 4.267-6.871 5.17-10.691c.394-1.664.556-2.785.675-4.661c.088-1.389.078-1.809-.094-3.959c-.758-9.459-2.05-18.966-3.738-27.519c-.244-1.235-.433-1.996-.514-2.064c-.175-.148-.584-.002-1.089.39c-.73.568-1.042 1.361-1.326 3.371c-.186 1.314-.326 1.899-.577 2.406c-.226.455-.451 1.45-.695 3.07c-.474 3.14-1.052 4.345-2.45 5.109c-.462.252-.612.385-.783.69c-.488.872-.762 1.846-.969 3.45c-.388 3.003-.601 3.899-1.142 4.807l-.324.543l.14.932c.231 1.54.126 2.63-.324 3.376c-.438.726-.93.964-2.202 1.065c-1.471.118-2.244.585-3.842 2.324c-.481.523-1.11 1.139-1.399 1.369c-1.005.8-2.472 2.933-2.883 4.191c-.285.873-.266 1.875.05 2.664c.279.695.525 1.048 1.493 2.145a78 78 0 0 1 2.081 2.553c1.504 1.918 2.481 2.956 3.377 3.588c1.31.926 2.447 1.324 4.226 1.483c1.281.114 1.113.071 2.673.686c.674.266 1.384.525 1.577.577c.496.132 1.061.123 1.422-.022"/></g></svg>