<svg xmlns="http://www.w3.org/2000/svg" width="128" height="128" viewBox="0 0 128 128"><path fill="#343741" d="M4 64c0 5.535.777 10.879 2.098 16H84c8.836 0 16-7.164 16-16s-7.164-16-16-16H6.098A63.7 63.7 0 0 0 4 64"/><path fill="#fec514" d="M111.695 30.648A61.5 61.5 0 0 0 117.922 24C106.188 9.379 88.199 0 68 0C42.715 0 20.957 14.71 10.574 36H98.04a20.12 20.12 0 0 0 13.652-5.352"/><path fill="#00bfb3" d="M98.04 92H10.577C20.961 113.29 42.715 128 68 128c20.2 0 38.188-9.383 49.922-24a61 61 0 0 0-6.227-6.648A20.13 20.13 0 0 0 98.04 92"/></svg>