<svg xmlns="http://www.w3.org/2000/svg" width="128" height="128" viewBox="0 0 128 128"><path fill="#439934" fill-rule="evenodd" d="M88.038 42.812c1.605 4.643 2.761 9.383 3.141 14.296c.472 6.095.256 12.147-1.029 18.142c-.035.165-.109.32-.164.48c-.403.001-.814-.049-1.208.012c-3.329.523-6.655 1.065-9.981 1.604c-3.438.557-6.881 1.092-10.313 1.687c-1.216.21-2.721-.041-3.212 1.641c-.014.046-.154.054-.235.08l.166-10.051l-.169-24.252l1.602-.275c2.62-.429 5.24-.864 7.862-1.281c3.129-.497 6.261-.98 9.392-1.465c1.381-.215 2.764-.412 4.148-.618" clip-rule="evenodd"/><path fill="#45A538" fill-rule="evenodd" d="M61.729 110.054c-1.69-1.453-3.439-2.842-5.059-4.37c-8.717-8.222-15.093-17.899-18.233-29.566c-.865-3.211-1.442-6.474-1.627-9.792c-.13-2.322-.318-4.665-.154-6.975c.437-6.144 1.325-12.229 3.127-18.147l.099-.138c.175.233.427.439.516.702q2.638 7.77 5.242 15.551c5.458 16.3 10.909 32.604 16.376 48.9c.107.318.384.579.583.866z" clip-rule="evenodd"/><path fill="#46A037" fill-rule="evenodd" d="M88.038 42.812c-1.384.206-2.768.403-4.149.616c-3.131.485-6.263.968-9.392 1.465c-2.622.417-5.242.852-7.862 1.281l-1.602.275l-.012-1.045c-.053-.859-.144-1.717-.154-2.576c-.069-5.478-.112-10.956-.18-16.434c-.042-3.429-.105-6.857-.175-10.285c-.043-2.13-.089-4.261-.185-6.388c-.052-1.143-.236-2.28-.311-3.423c-.042-.657.016-1.319.029-1.979c.817 1.583 1.616 3.178 2.456 4.749c1.327 2.484 3.441 4.314 5.344 6.311c7.523 7.892 12.864 17.068 16.193 27.433" clip-rule="evenodd"/><path fill="#409433" fill-rule="evenodd" d="M65.036 80.753c.081-.026.222-.034.235-.08c.491-1.682 1.996-1.431 3.212-1.641c3.432-.594 6.875-1.13 10.313-1.687c3.326-.539 6.652-1.081 9.981-1.604c.394-.062.805-.011 1.208-.012c-.622 2.22-1.112 4.488-1.901 6.647c-.896 2.449-1.98 4.839-3.131 7.182a49 49 0 0 1-6.353 9.763c-1.919 2.308-4.058 4.441-6.202 6.548c-1.185 1.165-2.582 2.114-3.882 3.161l-.337-.23l-1.214-1.038l-1.256-2.753a41.4 41.4 0 0 1-1.394-9.838l.023-.561l.171-2.426c.057-.828.133-1.655.168-2.485c.129-2.982.241-5.964.359-8.946" clip-rule="evenodd"/><path fill="#4FAA41" fill-rule="evenodd" d="M65.036 80.753c-.118 2.982-.23 5.964-.357 8.947c-.035.83-.111 1.657-.168 2.485l-.765.289c-1.699-5.002-3.399-9.951-5.062-14.913c-2.75-8.209-5.467-16.431-8.213-24.642a4499 4499 0 0 0-6.7-19.867c-.105-.31-.407-.552-.617-.826l4.896-9.002c.168.292.39.565.496.879a6168 6168 0 0 1 6.768 20.118c2.916 8.73 5.814 17.467 8.728 26.198c.116.349.308.671.491 1.062l.67-.78z" clip-rule="evenodd"/><path fill="#4AA73C" fill-rule="evenodd" d="M43.155 32.227c.21.274.511.516.617.826a4499 4499 0 0 1 6.7 19.867c2.746 8.211 5.463 16.433 8.213 24.642c1.662 4.961 3.362 9.911 5.062 14.913l.765-.289l-.171 2.426l-.155.559c-.266 2.656-.49 5.318-.814 7.968c-.163 1.328-.509 2.632-.772 3.947c-.198-.287-.476-.548-.583-.866c-5.467-16.297-10.918-32.6-16.376-48.9a3889 3889 0 0 0-5.242-15.551c-.089-.263-.34-.469-.516-.702z" clip-rule="evenodd"/><path fill="#57AE47" fill-rule="evenodd" d="m65.202 70.702l-.67.78c-.183-.391-.375-.714-.491-1.062c-2.913-8.731-5.812-17.468-8.728-26.198a6168 6168 0 0 0-6.768-20.118c-.105-.314-.327-.588-.496-.879l6.055-7.965c.191.255.463.482.562.769q2.52 7.382 5.003 14.778c1.547 4.604 3.071 9.215 4.636 13.813c.105.308.47.526.714.786l.012 1.045q.087 12.124.171 24.251" clip-rule="evenodd"/><path fill="#60B24F" fill-rule="evenodd" d="M65.021 45.404c-.244-.26-.609-.478-.714-.786c-1.565-4.598-3.089-9.209-4.636-13.813q-2.483-7.395-5.003-14.778c-.099-.287-.371-.514-.562-.769c1.969-1.928 3.877-3.925 5.925-5.764c1.821-1.634 3.285-3.386 3.352-5.968c.003-.107.059-.214.145-.514l.519 1.306c-.013.661-.072 1.322-.029 1.979c.075 1.143.259 2.28.311 3.423c.096 2.127.142 4.258.185 6.388c.069 3.428.132 6.856.175 10.285c.067 5.478.111 10.956.18 16.434c.008.861.098 1.718.152 2.577" clip-rule="evenodd"/><path fill="#A9AA88" fill-rule="evenodd" d="M62.598 107.085c.263-1.315.609-2.62.772-3.947c.325-2.649.548-5.312.814-7.968l.066-.01l.066.011a41.4 41.4 0 0 0 1.394 9.838c-.176.232-.425.439-.518.701c-.727 2.05-1.412 4.116-2.143 6.166c-.1.28-.378.498-.574.744l-.747-2.566z" clip-rule="evenodd"/><path fill="#B6B598" fill-rule="evenodd" d="M62.476 112.621c.196-.246.475-.464.574-.744c.731-2.05 1.417-4.115 2.143-6.166c.093-.262.341-.469.518-.701l1.255 2.754c-.248.352-.59.669-.728 1.061l-2.404 7.059c-.099.283-.437.483-.663.722z" clip-rule="evenodd"/><path fill="#C2C1A7" fill-rule="evenodd" d="M63.171 116.605c.227-.238.564-.439.663-.722l2.404-7.059c.137-.391.48-.709.728-1.061l1.215 1.037c-.587.58-.913 1.25-.717 2.097l-.369 1.208c-.168.207-.411.387-.494.624c-.839 2.403-1.64 4.819-2.485 7.222c-.107.305-.404.544-.614.812q-.164-2.079-.331-4.158" clip-rule="evenodd"/><path fill="#CECDB7" fill-rule="evenodd" d="M63.503 120.763c.209-.269.506-.508.614-.812c.845-2.402 1.646-4.818 2.485-7.222c.083-.236.325-.417.494-.624l-.509 5.545c-.136.157-.333.294-.398.477c-.575 1.614-1.117 3.24-1.694 4.854c-.119.333-.347.627-.525.938c-.158-.207-.441-.407-.454-.623c-.051-.841-.016-1.688-.013-2.533" clip-rule="evenodd"/><path fill="#DBDAC7" fill-rule="evenodd" d="M63.969 123.919c.178-.312.406-.606.525-.938c.578-1.613 1.119-3.239 1.694-4.854c.065-.183.263-.319.398-.477l.012 3.64l-1.218 3.124z" clip-rule="evenodd"/><path fill="#EBE9DC" fill-rule="evenodd" d="m65.38 124.415l1.218-3.124l.251 3.696z" clip-rule="evenodd"/><path fill="#CECDB7" fill-rule="evenodd" d="M67.464 110.898c-.196-.847.129-1.518.717-2.097l.337.23z" clip-rule="evenodd"/><path fill="#4FAA41" fill-rule="evenodd" d="m64.316 95.172l-.066-.011l-.066.01l.155-.559z" clip-rule="evenodd"/></svg>