<svg xmlns="http://www.w3.org/2000/svg" width="128" height="128" viewBox="0 0 128 128"><path d="M93.809 92.112c.785-6.533.55-7.492 5.416-6.433l1.235.108c3.742.17 8.637-.602 11.513-1.938c6.191-2.873 9.861-7.668 3.758-6.409c-13.924 2.873-14.881-1.842-14.881-1.842c14.703-21.815 20.849-49.508 15.543-56.287c-14.47-18.489-39.517-9.746-39.936-9.52l-.134.025c-2.751-.571-5.83-.912-9.289-.968c-6.301-.104-11.082 1.652-14.709 4.402c0 0-44.683-18.409-42.604 23.151c.442 8.841 12.672 66.898 27.26 49.362c5.332-6.412 10.484-11.834 10.484-11.834c2.558 1.699 5.622 2.567 8.834 2.255l.249-.212c-.078.796-.044 1.575.099 2.497c-3.757 4.199-2.653 4.936-10.166 6.482c-7.602 1.566-3.136 4.355-.221 5.084c3.535.884 11.712 2.136 17.238-5.598l-.22.882c1.474 1.18 1.375 8.477 1.583 13.69c.209 5.214.558 10.079 1.621 12.948s2.317 10.256 12.191 8.14c8.252-1.764 14.561-4.309 15.136-27.985"/><path d="M75.458 125.256c-4.367 0-7.211-1.689-8.938-3.32c-2.607-2.46-3.641-5.629-4.259-7.522l-.267-.79c-1.244-3.358-1.666-8.193-1.916-14.419c-.038-.935-.064-1.898-.093-2.919c-.021-.747-.047-1.684-.085-2.664a18.8 18.8 0 0 1-4.962 1.568c-3.079.526-6.389.356-9.84-.507c-2.435-.609-4.965-1.871-6.407-3.82c-4.203 3.681-8.212 3.182-10.396 2.453c-3.853-1.285-7.301-4.896-10.542-11.037c-2.309-4.375-4.542-10.075-6.638-16.943c-3.65-11.96-5.969-24.557-6.175-28.693C4.292 23.698 7.777 14.44 15.296 9.129C27.157.751 45.128 5.678 51.68 7.915c4.402-2.653 9.581-3.944 15.433-3.851c3.143.051 6.136.327 8.916.823c2.9-.912 8.628-2.221 15.185-2.139c12.081.144 22.092 4.852 28.949 13.615c4.894 6.252 2.474 19.381.597 26.651c-2.642 10.226-7.271 21.102-12.957 30.57c1.544.011 3.781-.174 6.961-.831c6.274-1.295 8.109 2.069 8.607 3.575c1.995 6.042-6.677 10.608-9.382 11.864c-3.466 1.609-9.117 2.589-13.745 2.377l-.202-.013l-1.216-.107l-.12 1.014l-.116.991c-.311 11.999-2.025 19.598-5.552 24.619c-3.697 5.264-8.835 6.739-13.361 7.709c-1.544.33-2.947.474-4.219.474m-9.19-43.671c2.819 2.256 3.066 6.501 3.287 14.434c.028.99.054 1.927.089 2.802c.106 2.65.355 8.855 1.327 11.477c.137.371.26.747.39 1.146c1.083 3.316 1.626 4.979 6.309 3.978c3.931-.843 5.952-1.599 7.534-3.851c2.299-3.274 3.585-9.86 3.821-19.575l4.783.116l-4.75-.57l.14-1.186c.455-3.91.783-6.734 3.396-8.602c2.097-1.498 4.486-1.353 6.389-1.01c-2.091-1.58-2.669-3.433-2.823-4.193l-.399-1.965l1.121-1.663c6.457-9.58 11.781-21.354 14.609-32.304c2.906-11.251 2.02-17.226 1.134-18.356c-11.729-14.987-32.068-8.799-34.192-8.097l-.359.194l-1.8.335l-.922-.191c-2.542-.528-5.366-.82-8.393-.869c-4.756-.08-8.593 1.044-11.739 3.431l-2.183 1.655l-2.533-1.043c-5.412-2.213-21.308-6.662-29.696-.721c-4.656 3.298-6.777 9.76-6.305 19.207c.156 3.119 2.275 14.926 5.771 26.377c4.831 15.825 9.221 21.082 11.054 21.693c.32.108 1.15-.537 1.976-1.529a271 271 0 0 1 10.694-12.07l2.77-2.915l3.349 2.225c1.35.897 2.839 1.406 4.368 1.502l7.987-6.812l-1.157 11.808c-.026.265-.039.626.065 1.296l.348 2.238l-1.51 1.688l-.174.196l4.388 2.025z"/><path fill="#336791" d="M115.731 77.44c-13.925 2.873-14.882-1.842-14.882-1.842c14.703-21.816 20.849-49.51 15.545-56.287C101.924.823 76.875 9.566 76.457 9.793l-.135.024c-2.751-.571-5.83-.911-9.291-.967c-6.301-.103-11.08 1.652-14.707 4.402c0 0-44.684-18.408-42.606 23.151c.442 8.842 12.672 66.899 27.26 49.363c5.332-6.412 10.483-11.834 10.483-11.834c2.559 1.699 5.622 2.567 8.833 2.255l.25-.212c-.078.796-.042 1.575.1 2.497c-3.758 4.199-2.654 4.936-10.167 6.482c-7.602 1.566-3.136 4.355-.22 5.084c3.534.884 11.712 2.136 17.237-5.598l-.221.882c1.473 1.18 2.507 7.672 2.334 13.557s-.29 9.926.871 13.082c1.16 3.156 2.316 10.256 12.192 8.14c8.252-1.768 12.528-6.351 13.124-13.995c.422-5.435 1.377-4.631 1.438-9.49l.767-2.3c.884-7.367.14-9.743 5.225-8.638l1.235.108c3.742.17 8.639-.602 11.514-1.938c6.19-2.871 9.861-7.667 3.758-6.408"/><path fill="#fff" d="M75.957 122.307c-8.232 0-10.84-6.519-11.907-9.185c-1.562-3.907-1.899-19.069-1.551-31.503a1.59 1.59 0 0 1 1.64-1.55a1.594 1.594 0 0 1 1.55 1.639c-.401 14.341.168 27.337 1.324 30.229c1.804 4.509 4.54 8.453 12.275 6.796c7.343-1.575 10.093-4.359 11.318-11.46c.94-5.449 2.799-20.951 3.028-24.01a1.593 1.593 0 0 1 1.71-1.472a1.597 1.597 0 0 1 1.472 1.71c-.239 3.185-2.089 18.657-3.065 24.315c-1.446 8.387-5.185 12.191-13.794 14.037c-1.463.313-2.792.453-4 .454M31.321 90.466a6.7 6.7 0 0 1-2.116-.35c-5.347-1.784-10.44-10.492-15.138-25.885c-3.576-11.717-5.842-23.947-6.041-27.922c-.589-11.784 2.445-20.121 9.02-24.778c13.007-9.216 34.888-.44 35.813-.062a1.596 1.596 0 0 1-1.207 2.955c-.211-.086-21.193-8.492-32.768-.285c-5.622 3.986-8.203 11.392-7.672 22.011c.167 3.349 2.284 15.285 5.906 27.149c4.194 13.742 8.967 22.413 13.096 23.79c.648.216 2.62.873 5.439-2.517A245 245 0 0 1 45.88 73.046a1.596 1.596 0 0 1 2.304 2.208c-.048.05-4.847 5.067-10.077 11.359c-2.477 2.979-4.851 3.853-6.786 3.853m69.429-13.445a1.596 1.596 0 0 1-1.322-2.487c14.863-22.055 20.08-48.704 15.612-54.414c-5.624-7.186-13.565-10.939-23.604-11.156c-7.433-.16-13.341 1.738-14.307 2.069l-.243.099c-.971.305-1.716-.227-1.997-.849a1.6 1.6 0 0 1 .631-2.025c.046-.027.192-.089.429-.176l-.021.006l.021-.007c1.641-.601 7.639-2.4 15.068-2.315c11.108.118 20.284 4.401 26.534 12.388c2.957 3.779 2.964 12.485.019 23.887c-3.002 11.625-8.651 24.118-15.497 34.277c-.306.457-.81.703-1.323.703m.76 10.21c-2.538 0-4.813-.358-6.175-1.174c-1.4-.839-1.667-1.979-1.702-2.584c-.382-6.71 3.32-7.878 5.208-8.411c-.263-.398-.637-.866-1.024-1.349c-1.101-1.376-2.609-3.26-3.771-6.078c-.182-.44-.752-1.463-1.412-2.648c-3.579-6.418-11.026-19.773-6.242-26.612c2.214-3.165 6.623-4.411 13.119-3.716C97.6 28.837 88.5 10.625 66.907 10.271c-6.494-.108-11.82 1.889-15.822 5.93c-8.96 9.049-8.636 25.422-8.631 25.586a1.595 1.595 0 1 1-3.19.084c-.02-.727-.354-17.909 9.554-27.916C53.455 9.272 59.559 6.96 66.96 7.081c13.814.227 22.706 7.25 27.732 13.101c5.479 6.377 8.165 13.411 8.386 15.759c.165 1.746-1.088 2.095-1.341 2.147l-.576.013c-6.375-1.021-10.465-.312-12.156 2.104c-3.639 5.201 3.406 17.834 6.414 23.229c.768 1.376 1.322 2.371 1.576 2.985c.988 2.396 2.277 4.006 3.312 5.3c.911 1.138 1.7 2.125 1.982 3.283c.131.23 1.99 2.98 13.021.703c2.765-.57 4.423-.083 4.93 1.45c.997 3.015-4.597 6.532-7.694 7.97c-2.775 1.29-7.204 2.106-11.036 2.106m-4.696-4.021c.35.353 2.101.962 5.727.806c3.224-.138 6.624-.839 8.664-1.786c2.609-1.212 4.351-2.567 5.253-3.492l-.5.092c-7.053 1.456-12.042 1.262-14.828-.577a6 6 0 0 1-.54-.401c-.302.119-.581.197-.78.253c-1.58.443-3.214.902-2.996 5.105m-45.562 8.915c-1.752 0-3.596-.239-5.479-.71c-1.951-.488-5.24-1.957-5.19-4.37c.057-2.707 3.994-3.519 5.476-3.824c5.354-1.103 5.703-1.545 7.376-3.67c.488-.619 1.095-1.39 1.923-2.314c1.229-1.376 2.572-2.073 3.992-2.073c.989 0 1.8.335 2.336.558c1.708.708 3.133 2.42 3.719 4.467c.529 1.847.276 3.625-.71 5.006c-3.237 4.533-7.886 6.93-13.443 6.93m-7.222-4.943c.481.372 1.445.869 2.518 1.137c1.631.408 3.213.615 4.705.615c4.546 0 8.196-1.882 10.847-5.594c.553-.774.387-1.757.239-2.274c-.31-1.083-1.08-2.068-1.873-2.397c-.43-.178-.787-.314-1.115-.314c-.176 0-.712 0-1.614 1.009a41 41 0 0 0-1.794 2.162c-2.084 2.646-3.039 3.544-9.239 4.821c-1.513.31-2.289.626-2.674.835m12.269-7.36a1.596 1.596 0 0 1-1.575-1.354a8 8 0 0 1-.08-.799c-4.064-.076-7.985-1.82-10.962-4.926c-3.764-3.927-5.477-9.368-4.699-14.927c.845-6.037.529-11.366.359-14.229c-.047-.796-.081-1.371-.079-1.769c.003-.505.013-1.844 4.489-4.113c1.592-.807 4.784-2.215 8.271-2.576c5.777-.597 9.585 1.976 10.725 7.246c3.077 14.228.244 20.521-1.825 25.117c-.385.856-.749 1.664-1.04 2.447l-.257.69c-1.093 2.931-2.038 5.463-1.748 7.354a1.595 1.595 0 0 1-1.335 1.819zM42.464 42.26l.062 1.139c.176 2.974.504 8.508-.384 14.86c-.641 4.585.759 9.06 3.843 12.276c2.437 2.542 5.644 3.945 8.94 3.945h.068c.369-1.555.982-3.197 1.642-4.966l.255-.686c.329-.884.714-1.74 1.122-2.646c1.991-4.424 4.47-9.931 1.615-23.132c-.565-2.615-1.936-4.128-4.189-4.627c-4.628-1.022-11.525 2.459-12.974 3.837m9.63-.677c-.08.564 1.033 2.07 2.485 2.271c1.449.203 2.689-.975 2.768-1.539s-1.033-1.186-2.485-1.388s-2.691.092-2.768.656m2.818 2.826l-.407-.028c-.9-.125-1.81-.692-2.433-1.518c-.219-.29-.576-.852-.505-1.354c.101-.736.999-1.177 2.4-1.177c.313 0 .639.023.967.069c.766.106 1.477.327 2.002.62c.91.508.977 1.075.936 1.368c-.112.813-1.405 2.02-2.96 2.02m-2.289-2.732c.045.348.907 1.496 2.029 1.651l.261.018c1.036 0 1.81-.815 1.901-1.082c-.096-.182-.762-.634-2.025-.81a6 6 0 0 0-.821-.059c-.812 0-1.243.183-1.345.282m43.605-1.245c.079.564-1.033 2.07-2.484 2.272c-1.45.202-2.691-.975-2.771-1.539c-.076-.564 1.036-1.187 2.486-1.388c1.45-.203 2.689.092 2.769.655m-2.819 2.56c-1.396 0-2.601-1.086-2.7-1.791c-.115-.846 1.278-1.489 2.712-1.688c.316-.044.629-.066.93-.066c1.238 0 2.058.363 2.14.949c.053.379-.238.964-.739 1.492c-.331.347-1.026.948-1.973 1.079zm.943-3.013q-.416 0-.856.061c-1.441.201-2.301.779-2.259 1.089c.048.341.968 1.332 2.173 1.332l.297-.021c.787-.109 1.378-.623 1.66-.919c.443-.465.619-.903.598-1.052c-.028-.198-.56-.49-1.613-.49m3.965 32.843a1.594 1.594 0 0 1-1.324-2.483c3.398-5.075 2.776-10.25 2.175-15.255c-.257-2.132-.521-4.337-.453-6.453c.07-2.177.347-3.973.614-5.71c.317-2.058.617-4.002.493-6.31a1.595 1.595 0 1 1 3.186-.172c.142 2.638-.197 4.838-.525 6.967c-.253 1.643-.515 3.342-.578 5.327c-.061 1.874.178 3.864.431 5.97c.64 5.322 1.365 11.354-2.691 17.411a1.6 1.6 0 0 1-1.328.708"/></svg>