<svg xmlns="http://www.w3.org/2000/svg" width="2500" height="2500" viewBox="0 0 192.756 192.756"><path fill="#fff" d="M0 192.756h192.756V0H0v192.756z"/><path fill-rule="evenodd" clip-rule="evenodd" d="M29.408 62.128l9.425 14.895H19.982l9.426-14.895zM17.654 94.362l9.427-14.895-18.969.116 9.542 14.779zM40.579 94.595l9.31-14.895-18.852.116 9.542 14.779z"/><path d="M11.837 109.023l-4.073 10.125c-.931 2.326-1.164 2.676-2.095 2.793v.465h3.957v-.465c-1.048-.117-1.63-.35-1.63-.814 0-.35.116-.582.814-2.328v-.232h4.422c0 .117.116.232.116.232.582 1.514.698 1.979.698 2.328 0 .58-.232.697-1.047.697-.116 0-.232.117-.465.117v.465h6.284v-.465h-.233c-.465 0-.932-.467-1.513-1.979l-4.655-10.939h-.58zm-.815 4.075l1.862 4.771H9.16l1.862-4.771zM19.75 109.258v.465a.358.358 0 0 0 .232.117c.931.115 1.397.465 1.397 1.047v9.891c0 .697-.582 1.164-1.629 1.164v.465h6.283c.466 0 1.397-.117 1.979-.35 3.025-.697 4.887-3.025 4.887-6.283 0-3.957-2.793-6.516-6.982-6.516H19.75zm4.771 1.976c0-1.047.116-1.279 1.163-1.279 2.444 0 3.841 2.211 3.841 6.051s-1.279 5.701-3.957 5.701c-.698 0-1.047-.348-1.047-.93v-9.543zM33.714 109.258v.465a.357.357 0 0 0 .231.117c1.049.115 1.397.465 1.397 1.047v9.891c0 .697-.582 1.164-1.513 1.164h-.116v.465h6.284c.465 0 1.396-.117 1.978-.35 3.026-.697 4.887-3.025 4.887-6.283 0-3.957-2.676-6.516-6.982-6.516h-6.166zm4.771 1.976c0-1.047.233-1.279 1.164-1.279 2.443 0 3.84 2.211 3.84 6.051s-1.28 5.701-3.957 5.701c-.698 0-1.047-.348-1.047-.93v-9.543zM47.794 109.258v.465c1.396.117 1.862.465 1.862 1.279v9.66c0 .812-.582 1.162-1.862 1.279v.465h6.866v-.465c-1.396-.117-1.862-.467-1.862-1.279v-9.66c0-.814.349-1.162 1.629-1.162 0 0 .117 0 .233-.117v-.465h-6.866zM64.319 109.023h-.582l-.117.467c-.116.115-.232.115-.465.115h-.232l-1.513-.465c-.349-.117-.814-.117-1.396-.117-2.56 0-4.189 1.398-4.189 3.84 0 1.631.814 2.91 2.676 3.725l2.677 1.396c1.047.582 1.396 1.047 1.396 1.979 0 1.279-.931 2.211-2.444 2.211-1.047 0-1.979-.467-2.676-1.279-.466-.699-.931-1.631-1.28-2.91h-.466v4.771h.583c0-.35.233-.699.466-.699.116 0 .232.117 1.861.582.35.117.815.117 1.513.117 2.909 0 4.771-1.629 4.771-4.072 0-1.629-.813-2.91-2.56-3.84L59.2 113.33c-.814-.467-1.28-1.049-1.28-1.861 0-1.164.931-1.863 2.211-1.863 1.629 0 3.259 1.514 3.724 3.607h.466v-4.19h-.002zM73.395 109.023c-1.513 0-2.909.35-3.84 1.047-1.862 1.164-3.025 3.375-3.025 5.82 0 3.955 2.909 6.865 6.865 6.865 3.957 0 6.866-2.91 6.866-6.865 0-3.957-2.909-6.867-6.749-6.867h-.117zm0 .582h.117c2.094 0 3.258 2.328 3.258 6.285 0 4.072-1.164 6.283-3.375 6.283-2.211 0-3.491-2.211-3.491-6.283 0-1.863.349-3.258.931-4.539.582-1.163 1.28-1.628 2.56-1.746zM81.308 109.258v.582c.466 0 .815.348 1.513 1.047l.116.232v9.543c0 .697-.465 1.162-1.396 1.162l-.233.117v.465h4.422v-.465c-1.396-.117-1.862-.582-1.862-1.746v-8.029l8.612 10.59h.581v-11.637c0-.814.35-1.164 1.28-1.279l.233-.117v-.465h-4.189v.465c1.396.232 1.862.582 1.862 1.746v6.166l-6.75-8.377h-4.189z" fill-rule="evenodd" clip-rule="evenodd" fill="#0c0e0f"/><path fill="#0c0e0f" d="M94.923 118.916h9.774v-1.746h-9.774v1.746z"/><path d="M105.047 109.258v.465c.814.232.931.348 1.28 1.164l4.188 11.752h.466l3.607-9.193 3.375 9.193h.465l3.724-11.17.233-.467c.232-.697.582-1.047 1.28-1.279v-.465h-3.491v.465c.931.117 1.28.348 1.28.93 0 .234 0 .582-.116.932l-2.211 6.4-2.096-6.516c-.115-.582-.232-.816-.232-1.047 0-.352.35-.582 1.164-.582.116 0 .116 0 .232-.117v-.465h-6.051v.465c.581.117.698.117.932.232.349.232.465.35 1.047 1.979 0 .117 0 .232.115.348l-2.326 5.936-2.096-6.4c0-.115 0-.115-.115-.232-.116-.582-.233-.697-.233-1.047 0-.467.233-.697.931-.697l.35-.117v-.465h-5.702v-.002zM124.364 109.258v.465c1.163.117 1.629.465 1.629 1.164v9.891c0 .697-.466 1.047-1.629 1.164v.465h11.287l.815-4.072h-.582c-1.164 2.561-2.56 3.49-5.237 3.49-1.047 0-1.513-.35-1.513-1.047v-4.771c1.048 0 1.513.117 1.979.35.697.465 1.047 1.279 1.162 2.676h.582v-6.516h-.582c-.232 1.979-1.047 2.908-2.676 2.908-.117 0-.232-.115-.466-.115v-4.656c0-.465.349-.697 1.28-.697h1.396c1.862.115 2.909 1.164 3.258 3.258h.467v-3.955h-11.17v-.002zM146.357 109.023h-.582l-.232.467c0 .115-.233.115-.465.115h-.117l-1.629-.465c-.35-.117-.698-.117-1.28-.117-2.676 0-4.305 1.398-4.305 3.84 0 1.631.931 2.91 2.676 3.725l2.793 1.396c.931.582 1.396 1.047 1.396 1.979 0 1.279-1.048 2.211-2.444 2.211-1.047 0-2.095-.467-2.677-1.279-.582-.699-.931-1.631-1.279-2.91h-.582v4.771h.582c.116-.35.232-.699.582-.699 0 0 .231.117 1.745.582.349.117.931.117 1.513.117 2.909 0 4.888-1.629 4.888-4.072 0-1.629-.931-2.91-2.677-3.84l-3.142-1.514c-.814-.467-1.163-1.049-1.163-1.861 0-1.164.813-1.863 2.094-1.863 1.629 0 3.258 1.514 3.724 3.607h.582v-4.19h-.001zM148.219 109.258v.465l.233.117c.931 0 1.396.348 1.396 1.162v9.66c0 .812-.466 1.162-1.63 1.279v.465h11.172l.814-4.422h-.581c-.582 1.279-.932 1.979-1.631 2.561-.697.814-1.86 1.279-3.489 1.279-1.048 0-1.513-.232-1.513-.93v-9.66c0-1.047.349-1.395 1.629-1.395l.349-.117v-.465h-6.749v.001zM160.903 109.258v.465c1.28.117 1.745.465 1.745 1.164v9.891c0 .697-.465 1.047-1.745 1.164v.465h11.404l.814-4.072h-.582c-1.163 2.561-2.56 3.49-5.236 3.49-1.047 0-1.513-.35-1.513-1.047v-4.771c1.048 0 1.513.117 1.861.35.698.465 1.164 1.279 1.28 2.676h.467v-6.516h-.467c-.232 1.979-1.047 2.908-2.793 2.908-.116 0-.232-.115-.349-.115v-4.656c0-.465.349-.697 1.28-.697h1.279c1.979.115 2.909 1.164 3.259 3.258h.466v-3.955h-11.17v-.002zM173.82 109.258v.465c.698.117 1.163.465 1.513 1.047l3.607 6.516v3.143c0 1.047-.466 1.396-1.861 1.514v.465h6.749v-.465c-1.396-.117-1.745-.35-1.745-1.629v-3.725l3.374-5.469.349-.697c.233-.352.582-.582 1.28-.699v-.465h-4.306v.465l.35.117h.232c.698 0 1.047.23 1.047.812 0 .35-.232.932-.814 1.863l-2.094 3.49-2.096-4.305-.465-.814c-.117-.117-.232-.35-.232-.465 0-.467.349-.582 1.047-.582.232 0 .349 0 .582-.117v-.465h-6.517z" fill-rule="evenodd" clip-rule="evenodd" fill="#0c0e0f"/></svg>