<?xml version="1.0" encoding="utf-8"?>
<!-- Generator: Adobe Illustrator 19.2.1, SVG Export Plug-In . SVG Version: 6.00 Build 0)  -->
<svg version="1.1" id="Ebene_1" xmlns="http://www.w3.org/2000/svg" xmlns:xlink="http://www.w3.org/1999/xlink" x="0px" y="0px"
	 width="133px" height="30px" viewBox="0 0 133 30" style="enable-background:new 0 0 133 30;" xml:space="preserve">
<style type="text/css">
	.st0{fill:#FFCC00;}
</style>
<g>
	<g>
		<path class="st0" d="M18.436,19.431l-2.243,0.116v1.026h11.284v-1.026c-2.288-0.058-2.799-0.17-3.426-1.522L15.456,0.288h-3.167
			L7.557,9.743c-1.448,2.845-2.968,6.005-4.15,8.111C2.638,19.226,2.45,19.489,0,19.548v1.026h8.938v-1.026l-2.093-0.116
			c-1.062-0.053-1.101-0.381-0.855-1.107c0.553-1.638,1.399-3.309,2.206-5.179h8.676l2.457,5.117
			C19.672,18.994,19.494,19.378,18.436,19.431z M8.956,11.59c0.727-1.537,3.121-6.759,3.56-7.642h0.127l3.518,7.642H8.956z
			 M40.761,0.011c-3.126,0-5.608,1.999-7.284,3.024L32.92,0.011l-6.477,1.02v1.025l1.628,0.2c1.106,0.165,1.362,0.371,1.362,1.843
			v22.339c0,2.093-0.207,2.171-3.203,2.381V30h11.106v-1.18c-3.603-0.21-3.858-0.288-3.858-2.381v-6.304
			c0.898,0.489,2.907,0.939,4.89,0.939c5.777,0,10.768-2.537,10.768-10.986C49.135,7.174,48.566,0.011,40.761,0.011z M38.401,19.641
			c-2.224,0-3.932-1.104-4.625-2.992c-0.257-0.736-0.3-1.56-0.3-2.502V7.424c0-1.022,0.175-1.602,0.557-2.339
			c0.982-1.89,2.831-2.869,5.105-2.869c1.708,0,5.518,1.064,5.518,8.118C44.657,16.359,42.693,19.641,38.401,19.641z M64.621,0.011
			c-1.544,0-2.813,0.889-5.637,3.236l-0.519-3.236l-6.519,1.004v1.017l1.624,0.201c1.109,0.161,1.36,0.367,1.36,1.817v12.949
			c0,2.098-0.206,2.182-3.205,2.388v1.18H63.04v-1.18c-3.809-0.205-4.057-0.29-4.057-2.388V7.381c0-3.091,1.453-4.152,2.435-4.152
			c0.68,0,1.412,0.241,2.652,0.899c0.295,0.087,0.644,0.129,0.848,0.129c1.04,0,1.968-1.011,1.968-2.269
			C66.887,1.097,66.296,0.011,64.621,0.011z M84.533,9.774c0.897,0,1.714-0.198,1.714-1.519c0-2.42-0.817-8.244-8.619-8.244
			c-6.624,0-9.803,4.548-9.803,10.671c0,6.474,2.923,10.477,9.849,10.392c4.713-0.045,7.161-2.557,8.316-5.793l-1.284-0.665
			c-1.204,2.383-2.835,4.351-6.188,4.351c-5.251,0-6.308-4.924-6.224-9.194h12.239V9.774z M77.376,1.444
			c3.936,0,4.402,3.892,4.402,5.489c0,0.786-0.249,1.322-1.434,1.322h-8.009C72.334,6.57,72.973,1.444,77.376,1.444z M97.375,8.446
			c-1.741-0.531-4.549-1.39-4.549-3.686c0.044-2.131,1.701-3.316,3.824-3.316c3.056,0,4.509,2.254,4.811,4.753h1.244V1.403
			c-1.412-0.987-3.603-1.393-5.522-1.393c-4.612,0-7.699,2.087-7.739,5.985c0.04,3.396,2.869,4.916,6.416,5.938
			c1.906,0.578,4.576,1.513,4.576,4.307c0,2.089-1.688,3.401-3.955,3.401c-3.448,0-5.348-2.414-6.196-5.897h-1.226l0.426,5.366
			c1.524,1.312,4.105,1.964,6.606,1.964c5.078,0,7.987-2.58,7.987-6.063C104.079,11.405,101.77,9.763,97.375,8.446z M115.461,8.446
			c-1.75-0.531-4.553-1.39-4.553-3.686c0.04-2.131,1.697-3.316,3.833-3.316c3.039,0,4.505,2.254,4.807,4.753h1.248V1.403
			c-1.417-0.987-3.607-1.393-5.523-1.393c-4.62,0-7.707,2.087-7.751,5.985c0.044,3.396,2.883,4.916,6.411,5.938
			c1.91,0.578,4.594,1.513,4.594,4.307c0,2.089-1.706,3.401-3.963,3.401c-3.439,0-5.353-2.414-6.196-5.897h-1.226l0.426,5.366
			c1.528,1.312,4.105,1.964,6.611,1.964c5.069,0,7.983-2.58,7.983-6.063C122.161,11.405,119.847,9.763,115.461,8.446z M128.922,0
			c-2.225,0-4.093,1.759-4.093,4.061c0,2.345,1.869,4.102,4.093,4.102c2.222,0,4.078-1.756,4.078-4.102
			C133,1.759,131.143,0,128.922,0z M128.922,7.565c-1.897,0-3.354-1.506-3.354-3.504c0-1.955,1.457-3.463,3.354-3.463
			c1.884,0,3.341,1.508,3.341,3.463C132.263,6.058,130.806,7.565,128.922,7.565z M130.837,3.057c0-0.919-0.53-1.366-1.661-1.366
			h-1.84v4.771h0.743V4.409h0.781l1.293,2.053h0.793l-1.357-2.107C130.293,4.278,130.837,3.918,130.837,3.057z M128.851,3.809
			h-0.772V2.292h0.977c0.502,0,1.045,0.098,1.045,0.729C130.1,3.775,129.501,3.809,128.851,3.809z"/>
	</g>
</g>
</svg>
