<svg width="512" height="512" viewBox="0 0 512 512" fill="none" xmlns="http://www.w3.org/2000/svg">
<path d="M218 82C314.12 82 392 159.88 392 256C392 352.12 314.12 430 218 430C121.88 430 44 352.12 44 256C44 159.88 121.88 82.0003 218 82ZM217.871 137.499C185.012 137.628 155.645 150.695 134.17 172.17C112.695 193.774 99.499 223.141 99.499 255.871C99.4991 288.73 112.695 318.096 134.17 339.571C155.645 361.046 185.141 374.242 217.871 374.242C250.731 374.242 280.097 361.046 301.572 339.571C323.047 318.096 336.243 288.73 336.243 255.871C336.243 223.141 323.047 193.645 301.572 172.17C279.968 150.695 250.601 137.499 217.871 137.499ZM427.965 82C450.604 82.0001 468.975 100.37 468.975 123.01C468.975 145.649 450.604 164.019 427.965 164.02C405.325 164.02 386.955 145.649 386.955 123.01C386.955 100.37 405.325 82 427.965 82Z" fill="#D30000"/>
</svg>
