<svg width="96" height="96" viewBox="0 0 96 96" fill="none" xmlns="http://www.w3.org/2000/svg">
<g clip-path="url(#clip0_5626_17284)">
<path d="M80.7965 26.6265H68.4535L83.9538 45.5701L67.6377 66.1029H80.7117L96.0001 45.5701L80.7965 26.6265Z" fill="#F37143"/>
<path d="M15.2036 26.6265H27.5466L12.0463 45.5701L28.3624 66.1029H15.2884L0 45.5701L15.2036 26.6265Z" fill="#F37143"/>
<path d="M61.6732 28.7032C58.7808 26.902 55.5175 26.0015 51.8623 26.0015C49.0335 26.0015 46.4801 26.6054 44.2234 27.8026C42.8885 28.5124 41.7018 29.3706 40.6636 30.3771V26.6266H29.9521V82.8111H40.5788V62.808C41.6171 63.8039 42.8143 64.6621 44.1704 65.3614C46.4589 66.5374 49.0229 67.1201 51.8517 67.1201C55.5069 67.1201 58.7702 66.2195 61.6626 64.4184C64.555 62.6173 66.8223 60.1699 68.4856 57.0656C70.149 53.9613 70.9754 50.4756 70.9754 46.6085C70.9754 42.7413 70.149 39.1709 68.4856 36.0666C66.8223 32.9623 64.5444 30.5043 61.6626 28.7137L61.6732 28.7032ZM58.7702 52.1178C57.9226 53.7282 56.736 54.9784 55.2103 55.879C53.6846 56.7795 51.9365 57.2245 49.9764 57.2245C48.0164 57.2245 46.2788 56.7795 44.785 55.879C43.2805 54.9784 42.115 53.7282 41.2675 52.1178C40.4199 50.5074 39.9961 48.6427 39.9961 46.5237C39.9961 44.4047 40.4199 42.6142 41.2675 41.0038C42.115 39.3934 43.3017 38.1432 44.8273 37.2426C46.353 36.342 48.0694 35.8971 49.9764 35.8971C51.8835 35.8971 53.6846 36.342 55.2103 37.2426C56.736 38.1432 57.9226 39.3934 58.7702 41.0038C59.6178 42.6142 60.0415 44.4471 60.0415 46.5237C60.0415 48.6003 59.6178 50.518 58.7702 52.1178Z" fill="#F37143"/>
</g>
<defs>
<clipPath id="clip0_5626_17284">
<rect width="96" height="56.8096" fill="white" transform="translate(0 26.0015)"/>
</clipPath>
</defs>
</svg>
