<svg width="115" height="31" viewBox="0 0 115 31" fill="none" xmlns="http://www.w3.org/2000/svg"><path d="M108.211 5.89722H102.542L109.79 14.7434L102.542 23.5896H108.211L115 14.7434L108.211 5.89722Z" fill="#FA7040"/><path d="M83.4517 5.89722H89.1242L81.8789 14.7434L89.1242 23.5896H83.4517L76.6659 14.7434L83.4517 5.89722Z" fill="#FA7040"/><path d="M6.78901 5.89722H12.4583L5.20962 14.7434L12.4583 23.5896H6.78901L0 14.7434L6.78901 5.89722Z" fill="#FA7040"/><path d="M46.0506 18.721C45.2265 19.625 44.1491 20.077 42.8246 20.077C41.9533 20.077 41.188 19.8721 40.5228 19.4623C39.8576 19.0525 39.3395 18.486 38.9628 17.7569C38.586 17.0277 38.3976 16.178 38.3976 15.2138C38.3976 14.2496 38.586 13.436 38.9628 12.7069C39.3395 11.9777 39.8576 11.4052 40.5228 11.0014C41.188 10.5917 41.9533 10.3868 42.8246 10.3868C43.6959 10.3868 44.4965 10.5917 45.1676 11.0014C45.8328 11.4112 46.3509 11.9777 46.7276 12.7069C47.1044 13.436 47.2928 14.2737 47.2928 15.2138C47.2928 16.648 46.8807 17.8171 46.0565 18.721H46.0506ZM47.0337 7.97627C46.551 7.45199 45.9859 7.0181 45.3265 6.6746C44.3375 6.15634 43.2072 5.89722 41.9533 5.89722C40.358 5.89722 38.9157 6.307 37.6382 7.12054C36.3548 7.94011 35.3541 9.04894 34.63 10.4591C33.9059 11.8692 33.5409 13.4662 33.5409 15.2499C33.5409 17.0337 33.9059 18.5945 34.63 20.0046C35.3541 21.4148 36.3607 22.5296 37.6382 23.3492C38.9216 24.1688 40.358 24.5725 41.9533 24.5725C43.2072 24.5725 44.3316 24.3074 45.3265 23.771C45.9859 23.4155 46.551 22.9816 47.0337 22.4573V24.1929H51.7492V6.25879H47.0337V7.97024V7.97627Z" fill="#FA7040"/><path d="M65.2342 19.6285C64.5938 19.9112 63.877 20.0556 63.078 20.0556C62.2085 20.0556 61.433 19.8511 60.7456 19.4421C60.0582 19.0331 59.5177 18.4677 59.1182 17.7399C58.7187 17.0122 58.519 16.1762 58.519 15.2379C58.519 14.2996 58.7187 13.4395 59.1182 12.7358C59.5177 12.0321 60.0582 11.4788 60.7456 11.0698C61.433 10.6608 62.2085 10.4563 63.078 10.4563C63.8477 10.4563 64.5586 10.5946 65.1931 10.8653C65.8334 11.1359 66.3798 11.5329 66.8381 12.0501L69.8814 8.8985C69.0354 7.93616 68.0366 7.19637 66.8792 6.6731C65.7218 6.15584 64.4528 5.89722 63.078 5.89722C61.3155 5.89722 59.7175 6.31222 58.284 7.13622C56.8446 7.96624 55.7165 9.07894 54.8999 10.4924C54.0774 11.8998 53.6661 13.4936 53.6661 15.274C53.6661 17.0543 54.0774 18.6121 54.8999 20.0195C55.7224 21.4269 56.8446 22.5396 58.2663 23.3516C59.6881 24.1695 61.292 24.5725 63.078 24.5725C64.4528 24.5725 65.7218 24.3139 66.8792 23.7966C68.0366 23.2794 69.0647 22.5216 69.9578 21.5352L66.8792 18.3835C66.421 18.9248 65.8687 19.3398 65.2342 19.6225" fill="#FA7040"/><path d="M76.6668 14.4873V0H71.8752V23.5899H76.6668V15.4271" fill="#FA7040"/><path d="M98.2907 0H93.3692V6.02583H89.1247V10.2103H93.3692V23.5899H98.2907V10.2103H102.541V6.02583H98.2907V0Z" fill="#FA7040"/><path d="M26.2015 17.9209C25.8247 18.6602 25.3005 19.2406 24.6233 19.656C23.9461 20.0715 23.1747 20.2792 22.3031 20.2792C21.4316 20.2792 20.666 20.0715 20.0006 19.656C19.3352 19.2406 18.8169 18.6663 18.44 17.9209C18.0632 17.1816 17.8747 16.3202 17.8747 15.3426C17.8747 14.3651 18.0632 13.5403 18.44 12.8011C18.8169 12.0618 19.341 11.4814 20.0183 11.072C20.6955 10.6566 21.4551 10.4489 22.3031 10.4489C23.1511 10.4489 23.9461 10.6566 24.6233 11.072C25.3005 11.4875 25.8247 12.0618 26.2015 12.8011C26.5784 13.5403 26.7669 14.3895 26.7669 15.3426C26.7669 16.2957 26.5784 17.1816 26.2015 17.9209ZM27.4912 7.13746C26.2074 6.31267 24.7588 5.89722 23.1393 5.89722C21.8791 5.89722 20.7485 6.17215 19.7474 6.72201C19.1526 7.05193 18.6285 7.44905 18.1692 7.90727V6.15993H13.4169V30.47H18.1338V22.8452C18.5932 23.3034 19.1232 23.6945 19.7297 24.0183C20.7426 24.5559 21.8791 24.8308 23.1393 24.8308C24.7588 24.8308 26.2133 24.4154 27.4912 23.5906C28.775 22.7597 29.7819 21.6355 30.5181 20.1998C31.2542 18.7701 31.6252 17.1633 31.6252 15.3793C31.6252 13.5953 31.2542 11.9518 30.5181 10.5222C29.7819 9.09253 28.7691 7.96226 27.4912 7.13135" fill="#FA7040"/></svg>