<svg xmlns="http://www.w3.org/2000/svg" width="128" height="128" viewBox="0 0 128 128"><path fill="#d33833" d="M108.893 61.68c0 25.36-20.099 45.918-44.892 45.918S19.108 87.04 19.108 61.68s20.1-45.92 44.893-45.92s44.892 20.56 44.892 45.92"/><path fill="#ef3d3a" d="M20.938 73.052S17.688 25.167 61.81 23.8l-3.078-5.13l-23.943 8.037l-6.84 7.867l-5.986 11.459l-3.42 13.339l1.025 8.893"/><path fill="#231f20" d="M33.253 30.355c-7.876 8.06-12.75 19.186-12.75 31.496c0 12.307 4.874 23.436 12.75 31.494c7.88 8.057 18.74 13.03 30.747 13.03s22.867-4.973 30.747-13.03c7.876-8.058 12.751-19.187 12.751-31.494c0-12.31-4.875-23.437-12.751-31.496C86.867 22.3 76.007 17.327 64 17.326c-12.006.001-22.867 4.973-30.747 13.03zM31.26 95.294c-8.37-8.561-13.546-20.392-13.546-33.443c0-13.053 5.176-24.883 13.546-33.444c8.37-8.563 19.954-13.87 32.74-13.869c12.788-.002 24.374 5.306 32.741 13.869c8.372 8.561 13.548 20.392 13.547 33.444c0 13.05-5.175 24.882-13.547 33.443c-8.367 8.562-19.953 13.87-32.74 13.87s-24.372-5.308-32.74-13.87"/><path fill="#f0d6b7" d="m82.898 61.934l-6.841 1.026l-9.235 1.026l-5.986.171l-5.815-.17l-4.446-1.369l-3.934-4.275l-3.078-8.722l-.684-1.881l-4.105-1.368l-2.394-3.934l-1.71-5.644l1.881-4.96l4.446-1.538l3.592 1.71l1.71 3.762l2.053-.342l.683-.855l-.683-3.933l-.172-4.96l1.026-6.84l-.04-3.908l3.119-4.985l5.472-3.934l9.578-4.104l10.603 1.539l9.235 6.67l4.276 6.84l2.736 4.96l.684 12.313l-2.053 10.604l-3.762 9.405l-3.591 4.96"/><path fill="#335061" d="m88.027 56.975l-4.103 4.105v15.904l-3.58 14.66l-1.721.047l1.367 16.418l6.498-.855L84.95 91.52l-2.902.079l7.863-.422s3.932-9.919 3.932-10.432s3.422-14.365 3.422-14.365l-7.698-8.037l-1.539-1.37zm-41.215 2.564l-4.275 1.711l-13.682 9.406l.856 2.737l3.934 11.628l1.709 19.327l1.197 2.05l17.101 5.817l1.028-1.2l-2.053-14.365v-4.103l24.455-1.027l1.88-1.026l-14.876-7.012l2.736-5.3l-3.933 1.367l-1.54-1.881l-2.052-8.893l-1.711-.513l-3.762-1.198l-3.25-2.906z"/><path fill="#6d6b6d" d="m36.551 31.835l4.446-1.54l3.592 1.711l1.71 3.762l2.053-.342l.513-2.052l-1.026-3.933l1.026-9.407l-.856-5.13l3.079-3.592l6.67-5.301l-1.882-2.565l-9.406 4.617l-3.933 3.079l-2.224 4.788l-3.42 4.617l-1.026 5.473z"/><path fill="#dcd9d8" d="M59.445 4.021c-1.172-.012-2.543.108-2.543.108L45.787 8.406l-4.277 4.276l-1.881 3.42l3.934-.342s2.565-6.328 12.826-9.406c6.413-1.924 5.01-2.312 3.056-2.333M48.01 14.904l-9.406 2.223l-2.737 8.893l.684 5.814l1.88-1.195s-3.591-11.974 10.09-13.684z"/><path fill="#f7e4cd" d="M69.986.475a11.3 11.3 0 0 0-3.85.748c-10.26 3.933-17.785 11.115-17.615 15.732c.292 7.864.172 7.87.172 7.87S51.601 9.774 66.31 6.866c12.108-2.393 18.468.512 20.863 3.248c0 0-8.25-9.82-17.186-9.64zm18.328 11.35c-.545-.003-4.913.108-5.074 4.277c0 0 0 .683.342 1.367c0 0 3.934-4.447 6.328-2.053l-1.539-3.59s-.02-.002-.057-.002zm-25.185 2.01c-.84.02-1.876.371-3.149 1.24c-3.762 2.565-3.42 6.157-2.736 6.841s.499 2.06 1.02 1.115c.52-.945.349-4.022 2.23-4.877s4.966-1.812 6.16-.222c0 0-.522-4.166-3.525-4.096zm26.437 10.476s-2.818.594-3.078 3.078s3.079.512 3.592.341zm-20.693.171s-3.762.513-3.762 2.907s4.276 2.223 5.473 1.197zM38.432 30.64L34.5 34.742l.684 5.131l2.05 5.3l2.225.686c-3.25-3.933-1.711-6.671-1.027-10.433c.683-3.763 7.183.172 7.183.172l-.172-2.567l-2.564-2.05l-4.447-.342zm38.609 7.847c-1.126-.05-1.556 3.635-1.648 4.586c.31-.92 3.171-2.77 3.171-2.77s0-1.396-1.396-1.794a.6.6 0 0 0-.127-.022m-1.648 4.586a.4.4 0 0 0-.02.221s.006-.08.02-.22zm-29.248 1.301l-2.24 2.17l.513 7.525l5.473 8.551s6.143 1.386 5.472.856c-7.353-5.815-7.866-16.59-8.037-17.788c-.17-1.196-1.181-1.314-1.181-1.314m19.244 2.549c-.675.01-1.122.228-1.248.396c-.427.57.457 3.672.457 3.672l.855.172c-.17-3.421 1.881-3.764 1.881-3.764c-.758-.364-1.42-.484-1.945-.476"/><path fill="#49728b" d="m45.615 59.37l-16.76 11.286l1.881 5.303l4.448 19.152l.17 10.092l2.394.854c3.42-8.21-3.248-34.717-3.248-34.717l16.074-7.182l-4.959-4.789zm6.614 19.448l-.458 1.073s-.341 3.078-.341 3.933c0 .856.341 8.04.341 8.04h2.737V81.601l-2.28-2.784zm.056 14.584l-7.695.342l2.222 1.54l5.473.855zm35.742-36.427l-3.248 3.591L96.75 69.46l.342-4.104zm-3.42 33.52l-5.984 1.196l.854 4.79c2.223 1.026 5.986-1.711 5.986-1.711z"/><path fill="#fff" d="M50.574 62.62v1.538l2.174 2.395l6.84 3.078l.172-5.129l-4.739-.516zm50.059 24.284l-5.473 1.711l-5.25 2.563l-2.789-.51l-2.172.853l1.832 14.368l6.668-1.883l12.656-.684l1.881-5.814l-3.42-10.09zm-22.01 4.787l-9.97.002l-16.026.854l.291 7.869l1.762 10.6l3.54 14.369l7.866 1.709l12.998-1.026l.17-2.566l-1.54-13.852zm1.317-1.366l-3.763-9.577l-3.934-5.644s.855-2.394 2.053-2.394h3.933l3.762 1.368l-.341 6.328z"/><path fill="#dcd9d8" d="m52.115 65.014l-.513.685l2.908 2.051l4.787 1.025l-.17-2.05c-1.71.513-7.012-1.711-7.012-1.711m23.77 7.353l-3.932.512l6.67 15.734l1.367.172l.684-1.71s-4.79-9.236-4.79-10.604c0 0 .856-2.052 2.053-1.54c1.198.514 3.764 1.882 3.764 1.882v-3.249zm16.248 17.957l-2.223.854l1.881 9.406c-.684-.171-5.13 1.883-5.13 1.883l.51 2.736l1.884-.685l5.984-.854l1.711 2.223l5.13.17l3.079-.684l2.736-4.103l-.172-3.08l-1.88-5.473c.513 4.104-1.54 8.039-1.54 8.039c-.855 0-10.431-.514-10.431-.514c0-1.026-1.54-9.918-1.54-9.918zm-13.17.17l-2.565 1.027s-.854 17.787 1.711 30.442c0 0-5.13 3.249-12.656 4.103l14.365-.513l1.711-1.026l-2.052-28.047zm4.47 18.297c-.736.004-1.83.526-2.603.475c-.113 2.701.266 7.033.393 9.867c1.796.002 2.565-.392 3.906-.844c.151-3.335-1.057-6.422-1.404-9.467a1 1 0 0 0-.291-.031z"/><path fill="#d33833" d="M84.777 63.818c-2.192.102-5.148 2.897-6.525 3.387c.178.512.47.917.492 1.57c.965-.238 2.14-.075 2.977.336c-.968.108-2.038.102-2.678.563c-.235.677.055 1.6-.102 2.54c2.296.648 4.919.994 7.82 1.079c.566-.733.758-2.133.69-3.518c-.08-1.67-.519-5.104-1.55-5.705c-.34-.197-.718-.27-1.124-.252m-22.535.748c-2.324.05-2.082 4.108-1.969 6.592c.095 2.098 1.188 4.318 1.66 5.713c.224.65.274 1.342.83 1.47c.984.23 4.23-1.067 5.155-1.571c1.955-1.066 3.473-2.76 5.133-3.897l.062-1.658c-.998-.498-2.15-.852-3.617-.916c.995-.5 2.457-.493 3.363-1.088l.026-.662c-1.654-.127-2.285-.864-3.375-1.461c-1.784-.974-4.464-2.037-6.768-2.477a2.4 2.4 0 0 0-.5-.045m13.43 3.457c-.442.004-.969.171-1.57.573c-.114 1.259.18 1.67.433 3.115c3.493 1.093 3.525-3.704 1.137-3.688"/><path fill="#ef3d3a" d="m84.557 62.621l-6.498 3.762l-.344 1.88v3.762l2.394.856s-1.197-1.71-.341-2.223c.855-.513 1.711 0 2.224-.855c.513-.856 0-1.369.17-2.395c.171-1.026 1.026-1.196 1.881-1.367c.855-.17 3.25-.513 3.592.342l-1.026-3.078zm-21.536 1.03c-.847-.018-1.619.122-2.185.507c-4.021 2.735-.78 9.056 1.19 12.774a552 552 0 0 0-.538-6.409c-.362-3.98.957-3.285 4.408-3.285c.528 0 3.245.628 3.44 1.026c.933 1.905-1.56 1.481 1.074 2.918c2.224 1.212 6.152-.737 5.254-3.432c-.503-.6-2.62-.187-3.379-.58l-4.008-2.078c-1.168-.607-3.392-1.403-5.256-1.442Zm-.996 13.28l.127 1.594l.612-.183c-.204-.405-.46-.883-.739-1.41z"/><path fill="#231f20" d="M67.565.006c-3.59.068-7.101.665-10.027 1.742c-2.175.8-4.282 1.516-6.192 2.638c-5.111 3-10.537 5.008-12.052 11.047c-3.734 1.672-4.86 6.451-4.672 11.997c.036 1.081.623 2.432.42 3.449c-.104.516-.804 1.177-.944 1.513c-1.79 4.267-.355 9.876 1.713 12.909c1.25 1.832 3.32 3.457 6.05 3.888c.109 1.635.502 3.042 1.257 4.699c.478 1.048 2.263 2.932 1.606 4.269c-.33.674-3.237 2.137-4.201 2.716c-3.255 1.952-5.614 3.149-8.619 5.312c-1.944 1.4-4.985 1.58-4.505 4.808c.323 2.178 1.563 4.878 2.272 7.062c.768 2.357 1.868 4.516 2.5 6.962c1.405 5.451 1.698 10.587 2.04 15.911c.134 2.085-.088 4.291.453 5.442c.558 1.19 2.626 1.57 4.12 2.264c4.315 1.995 8.893 5.042 14.552 4.437c1.349 4.536 2.624 9.367 4.243 13.34c5.803 2.086 14.964 1.76 20.997 1.035c1.834-.222 3.769-1.127 4.2-2.717c-.129-.98-.272-1.95-.21-3.109c1.886-.39 4.453-.712 4.868-2.8c.582-2.928-1.849-7.123-1.038-10.336c1.092-.354 2.258-.631 2.084-2.355c1.84-.958 4.023-1.172 6.353-1.082c.3.58.727 1.138 1.111 1.457c3.264.656 6.425.71 9.135-.174c3.067-1.002 4.53-7.275 3.829-10.26c-.498-2.115-1.624-5.58-2.584-7.628c-2.601-5.56-10.353-2.07-14.502-.008c2.013-5.295 3.744-10.785 5.52-16.725c.53-1.78 1.578-4.303 1.343-6.147c-.22-1.734-2.924-3.556-4.347-4.93c-.791-.762-4.479-3.562-4.693-4.61c-.207-1.014 1.504-3.311 2.054-4.46c.79-1.644 1.356-3.656 1.745-5.025c2.9-10.196 3.195-24.204-.951-32.586c-1.57-3.175-5.96-7.56-8.705-9.637C79.74 1.254 73.546-.106 67.565.006m.478 2.84C72.89 2.799 78.28 4.509 81.93 6.568c3.05 1.72 5.3 5.048 7.446 7.817c-3.009-.893-5.57.642-5.103 3.124c2.519-2.309 6.822-.025 8.095 2.528c1.217 2.44 1.209 6.057 1.396 9.685c.453 8.798-1.61 17.875-6.031 24.234c-1.182 1.698-2.174 3.554-3.836 4.723c-4.006 2.813-10.095 5.363-15.309 3.614c-6.89-2.312-10.02-6.903-13.81-12.16c.103 2.888 2.134 5.258 4.14 7.467c1.745 1.925 3.851 4.1 6.117 4.998c-1.89-.444-4.792-.583-5.58 1.114c-4.41-.293-8.508-.744-10.594-3.733c-1.644-2.356-3.314-6.363-4.063-9.458c-.153-.636-.415-1.99-.351-2.337c.246-1.343 2.638-1.933 1.697-3.81c-1.736-.016-2.127 1.58-3.72 1.738c-4.125.408-7.035-5.467-6.848-9.012c.159-3.014 2.707-5.898 6.192-5.517c2.463.27 3.3 2.958 3.778 5.35c1.42.076 3.471-.061 4.143-1.169c-.097-2.703-1.352-4.871-1.266-7.355c.162-4.668 2.705-8.88.743-13.478c2.1-4.764 8.261-8.524 12.818-10.797c1.765-.88 3.856-1.264 6.06-1.286zM55.505 5.192c.198.032.38.186.556.374c-.03.811-.83.794-1.37 1.054c-.84 1.033-2.068 1.516-3.09 2.648c-1.049 1.16-2.222 4.276-3.612 4.62c-.697.174-1.493-.12-2.1-.08c-1.605.101-2.735.923-4.363 1.159c2.102-4.595 8.659-8.313 13.774-9.762a.5.5 0 0 1 .205-.013m8.74 9.973c-2.637.003-5.64 2.822-6.423 4.973c-.318.874-.82 2.59.441 2.895c1.413-3.149 3.729-6.185 8.39-5.1c.895-1.471-.705-2.552-1.887-2.73a3.5 3.5 0 0 0-.522-.038zm-16.656.48c1.802 4.586-1.293 10.036-.14 15.051c.353 1.536 1.574 3.92-.376 3.972c.051-4.37-5.37-7.143-9.455-4.574c-.273-3.314-.746-7.973 1.514-10.459c2.085-2.296 4.959-3.725 8.457-3.99m41.776 7.597c-.149 2.517.786 4.032 1.435 5.812c-1.122.706-3.305.266-4.57.819c-.09 3.723 5.76 1.888 6.65-.185c-1.33-1.932-2.241-4.25-3.295-6.437zm-20.325.057c-.692 1.964 1.188 5.298 2.242 6.984c-1.373 1.333-3.842.226-5.679.14c-1.753 2.769 3.423 3.29 5.644 2.634c.608-.179 1.66-1.09 1.805-1.5c.617-1.733-.627-2.493-1.267-3.117c-1.42-1.384-1.746-3.31-2.745-5.141m10.549 1.81c-.134-.018-.295.03-.488.17c-.125 4.616 3.305 8.437 5.863 11.52c1.25 1.505 2.756 2.365 1.369 4.703c-2.236.85-5.855 3.285-8.964 2.753c-1.65-.282-1.278-2.155-1.87-3.173c-1.138 1.497-.692 3.762.48 4.78c5.479.542 9.208-1.794 12.552-3.943c-.133-.842 1.012-2.36.694-3.626c-.11-.436-1.102-1.068-1.704-1.727c-2.453-2.675-5.814-6.672-7.15-9.798c-.12-.28-.201-1.583-.782-1.66zm-38.98 8.635c-1.267-.02-2.415.815-2.686 2.783c.562-.368 1.015-1.415 2.028-.917c-.89 1.737-.676 5.12.535 6.22c-.007-2.062-.328-5.587 1.43-5.48c1.231.074 1.48 2.71 2.528 3.308c.723-3.478-1.722-5.882-3.835-5.914m50.051 10.36c-2.673 1.22-4.83 2.997-8.322 3.332c-.169.577-.097 2.033-.004 2.99c4.567-.095 6.77-3.358 8.326-6.321zm-21.884 1.921c1.335 3.573 7.353 4.833 12.443 4.579c-.008-1.058-.003-2.13-.215-2.998c-3.96.116-9.315-.049-12.228-1.58zm-.553 2.858c-2.573.003-.403 1.434.033 1.994c.902 1.16 1.96 3.139 3.608 4.015c2.598 1.38 7.758.801 9.63.04c.692-.28 1.25-1.057 1.507-1.713c-5.84.14-12.763.722-14.778-4.336m19.436 9.83c2 1.611 3.208 3.127 5.126 4.85c1.04.933 3.088 2.051 3.295 3.56c.115.842-.401 2.905-.591 3.852c-.84 4.154-2.73 9.642-4.53 13.995c-.654 1.582-1.28 3.56-2.143 3.902c-2.364.936-5.233-.091-7.242 1.16c2.7-4.685 5.64-9.111 8.286-13.852c-.403-.94-1.391-1.341-1.678-2.388c1.858-3.509 1.004-14.403-3.738-12.103c.663-.974 2.404-1.778 3.215-2.976m-41.724 2.48c.431-.17 3.577 3.923 4.042 4.255c2.55 1.81 5.716 3.24 8.677 4.653c.181 1.359.6 3.12 1.338 5.476c.813 2.602 1.484 6.274 4.922 4.398c-.327 1.486-2.237 2.408-1.71 4.141c.33 1.087 3.94 2.43 5.084 3.076c2.111 1.19 4.037 1.848 5.659 2.544c-7.37.202-14.291.802-21.102 1.729c-.816-1.264-.487-3.212-.573-5.225c-.094-2.186.815-7.114-.044-7.42c-.971-.345-1.153 1.623-1.188 2.057c-.182 2.308 1.099 7.195-.164 9.958c-1.382-.391-2.063-1.43-3.358-1.902c-.508 1.6 1.052 1.677.892 2.693c-.212 1.343-2.757.22-2.743 2.217c1.657.266 4.199-.515 5.97.232c.463 5.433 1.207 10.581 2.022 16.352c-7.048-.366-11.61-3.868-16.805-6.297c-.323-11.49-2.154-23.41-6.688-33.14c4.756-3.67 10.078-7.552 15.77-9.796zm39.082 2.626c.316.015.613.094.884.252c1.032.602 1.471 4.036 1.551 5.706c.067 1.385-.126 2.783-.69 3.517c-2.902-.085-5.524-.43-7.82-1.078c.157-.94-.135-1.865.1-2.543c.639-.46 1.711-.452 2.678-.56c-.836-.412-2.01-.575-2.975-.337c-.023-.654-.316-1.058-.493-1.57c1.427-.509 4.554-3.496 6.765-3.387m-5.2.127c-1.218.794-2.255 1.787-3.424 2.635c-2.593.129-4.008-.179-5.913-1.668c.03-.12.222-.066.23-.213c2.775 1.237 6.304-.504 9.106-.754zm-27.347.049c1.447 1.005 4.247.757 6.378 1.131c.11.683-.442 1.58-.432 2.531c-1.793-.11-7.427-2.16-5.946-3.662m9.772.573q.232-.006.5.045c2.304.44 4.984 1.502 6.768 2.477c1.09.596 1.721 1.332 3.375 1.46l-.025.662c-.906.595-2.369.588-3.363 1.088c1.466.064 2.62.417 3.618.915l-.065 1.659c-1.661 1.137-3.178 2.83-5.133 3.896c-.925.504-4.17 1.802-5.153 1.572c-.557-.129-.607-.82-.83-1.47c-.473-1.395-1.564-3.614-1.66-5.712c-.113-2.485-.356-6.545 1.968-6.592m13.294 3.463q.205-.016.39.011c2.126.313 1.972 4.722-1.392 3.67c-.253-1.444-.546-1.856-.433-3.115c.542-.361 1.022-.533 1.435-.566m1.936 5.014c1.218.13 2.182 1.81 3.92 1.7c-.279 4.532-.133 9.08-1.398 13.232c-2.357-4.322-3.744-9.54-6.795-13.217c.322-.342.61-.721.926-1.071c1.382.578 2.284-.758 3.347-.644m7.008 1.442c1.678-.013 3.052 1.084 3.807 2.297c-2.364 4.05-4.626 8.208-7.43 11.78c1.175-3.458 1.679-9.245 1.857-13.657a4.2 4.2 0 0 1 1.766-.42M71.71 76.03c2.8 3.554 4.504 8.125 6.38 12.537c-4.432-1.336-8.96-3.504-12.844-5.702c.762-3.304 3.75-5.016 6.464-6.835m29.511 11.728c1.217.03 2.426 1.018 2.955 1.819c.956 1.444 1.849 5.695 2.35 7.952c.747 3.359-.932 6.629-3.603 7.277v.001c-1.944.472-4.926.596-6.199-.019c1.558-.851 3.899-.856 5.702-1.44c-2.583-1.112-6.405-.064-9.511-.258c-.375-3.835-.658-7.993-1.567-11.02c1.813-1.927 6.193-2.39 8.68-3.981a2.1 2.1 0 0 1 1.193-.331m-.211 3.578c-3.183.094-5.67.937-7.09 2.938c2.583.165 4.443-2.408 7.09-2.938m-12.54.785q.339.013.66.083c1.692 2.91 2.056 7.749 2 11.261c-1.055.204-1.74.808-3.02.768c-.327-4.001-1.256-8.208-1.638-12.02c.61-.012 1.32-.12 1.997-.092zm-19.603.043c3.34-.054 6.58.142 9.385.726c.685 4.453.43 8.845.93 13.21c.662 5.808.166 12.434 1.3 17.876c-6.173 1.913-14.59 1.728-21.574-.392c-3.147-9.643-4.863-18.796-6.047-29.685c4.587-.858 10.437-1.645 16.006-1.735m14.824.384c1.103 3.987 1.037 9.06 1.579 13.567c-1.668.366-2.888.545-4.683.815c-.357-4.682-.63-9.295-.566-13.971c1.272-.426 2.394-.4 3.67-.411m14.486 2.296c-1.26.016-2.394.29-2.88 1.032c2.19.18 4.722-.17 6.88-.398c-.984-.34-2.572-.653-4-.634m-.361 3.24c-1.128.014-2.123.228-2.634.777c2.304.193 5.318.241 7.743.189c-.983-.458-3.23-.99-5.11-.966zM83.098 108.82c.236-.037.45-.045.627.002c.348 3.045 1.555 6.131 1.404 9.466c-1.34.452-2.11.848-3.907.845c-.126-2.834-.506-7.166-.392-9.868c.662.044 1.561-.334 2.268-.445"/><path fill="#81b0c4" d="M84.48 74.486a4.2 4.2 0 0 0-1.767.42c-.178 4.412-.68 10.199-1.856 13.656c2.805-3.571 5.066-7.73 7.43-11.779c-.756-1.213-2.129-2.31-3.807-2.297M71.71 76.03c-2.714 1.82-5.7 3.532-6.463 6.836c3.884 2.198 8.412 4.365 12.844 5.701c-1.876-4.41-3.58-8.982-6.381-12.537"/><path fill="#f0d6b7" d="M79.817 63.945c-1.218.795-2.255 1.787-3.424 2.636c-2.593.128-4.008-.18-5.913-1.669c.031-.12.223-.066.23-.213c2.775 1.237 6.304-.504 9.107-.754"/><path fill="#1d1919" d="M79.135 76.728a.94.94 0 1 1-1.881 0a.94.94 0 0 1 1.881 0m.941 4.361a.94.94 0 1 1-1.882 0a.94.94 0 0 1 1.882 0"/></svg>