<svg xmlns="http://www.w3.org/2000/svg" width="128" height="128" viewBox="0 0 128 128"><path fill="#F0DB4F" d="M1.408 1.408h125.184v125.185H1.408z"/><path fill="#323330" d="M116.347 96.736c-.917-5.711-4.641-10.508-15.672-14.981c-3.832-1.761-8.104-3.022-9.377-5.926c-.452-1.69-.512-2.642-.226-3.665c.821-3.32 4.784-4.355 7.925-3.403c2.023.678 3.938 2.237 5.093 4.724c5.402-3.498 5.391-3.475 9.163-5.879c-1.381-2.141-2.118-3.129-3.022-4.045c-3.249-3.629-7.676-5.498-14.756-5.355l-3.688.477c-3.534.893-6.902 2.748-8.877 5.235c-5.926 6.724-4.236 18.492 2.975 23.335c7.104 5.332 17.54 6.545 18.873 11.531c1.297 6.104-4.486 8.08-10.234 7.378c-4.236-.881-6.592-3.034-9.139-6.949c-4.688 2.713-4.688 2.713-9.508 5.485c1.143 2.499 2.344 3.63 4.26 5.795c9.068 9.198 31.76 8.746 35.83-5.176c.165-.478 1.261-3.666.38-8.581M69.462 58.943H57.753l-.048 30.272c0 6.438.333 12.34-.714 14.149c-1.713 3.558-6.152 3.117-8.175 2.427c-2.059-1.012-3.106-2.451-4.319-4.485c-.333-.584-.583-1.036-.667-1.071l-9.52 5.83c1.583 3.249 3.915 6.069 6.902 7.901c4.462 2.678 10.459 3.499 16.731 2.059c4.082-1.189 7.604-3.652 9.448-7.401c2.666-4.915 2.094-10.864 2.07-17.444c.06-10.735.001-21.468.001-32.237"/></svg>